<?xml version="1.0" encoding="utf-8"?>
<!-- Generator: Adobe Illustrator 16.0.0, SVG Export Plug-In . SVG Version: 6.00 Build 0)  -->
<!DOCTYPE svg PUBLIC "-//W3C//DTD SVG 1.1//EN" "http://www.w3.org/Graphics/SVG/1.1/DTD/svg11.dtd">
<svg version="1.1" id="Layer_1" xmlns="http://www.w3.org/2000/svg" xmlns:xlink="http://www.w3.org/1999/xlink" x="0px" y="0px"
	 width="75px" height="75px" viewBox="125 0 75 75" enable-background="new 125 0 75 75" xml:space="preserve">
<g>
	<path fill="#B69D74" d="M199.04,31.086h-8.435l4.255-2.42v-1.783h2.843v-0.525h-2.843V26.24h-0.402v0.118h-5.461v-0.733h-0.608
		v-1.129c0.087,0.085,0.198,0.164,0.371,0.188c0.35,0.051,0.605-0.174,0.72-0.38c0.26-0.47,0.12-1.061-0.37-1.582
		c-0.205-0.215-0.453-0.396-0.721-0.534v-1.652h-1.012V21.9c-0.066-0.006-0.14-0.01-0.206-0.009l-0.664,0.009l0.793,0.374
		c-0.656,0.473-1.454,1.01-2.413,1.182c-0.376,0.067-0.787,0.08-1.147,0.089c-4.865,0.136-9.791,0.039-14.639-0.29l-0.038,0.292
		c4.866,0.33,9.808,0.429,14.691,0.292c0.38-0.012,0.813-0.022,1.231-0.097c0.957-0.172,1.738-0.655,2.392-1.113v1.577
		c-0.014,0.009-0.027,0.019-0.038,0.028l-0.102,0.074c-0.451,0.332-1.157,0.335-1.899,0.339c-0.141,0-0.275,0.004-0.411,0.007
		c0.634-0.138,1.265-0.274,1.898-0.413c-1.681-0.066-3.375,0.034-5.021,0.303c-1.215,0.196-2.412,0.488-3.654,0.525
		c-1.249,0.036-2.592-0.233-3.351-0.946c0.12,0.312,0.237,0.623,0.357,0.935c-2.239,0.06-4.411-0.253-6.62-0.288
		c0.073-0.437,0.227-0.857,0.464-1.247l0.076-0.127l-0.171-0.063c-1.821-0.675-3.772-0.908-5.422-0.676
		c-0.399,0-0.79,0.045-1.18,0.204c-0.08,0.032-0.146,0.072-0.218,0.111c-0.326,0.071-0.667,0.104-1.008,0.094
		c-0.116-0.729-0.059-1.484,0.146-2.206c0.113,0.009,0.225-0.004,0.316-0.047c0.269-0.129,0.361-0.375,0.448-0.602
		c0.088-0.226,0.218-0.473,0.51-0.565c-0.178,0.057-0.449-0.412-0.795-0.785c0.125,0.093,0.241,0.192,0.351,0.297
		c-0.152-0.557-0.775-0.98-1.427-1.29c-0.653-0.308-1.375-0.55-1.928-0.951c-0.328-0.238-0.525-0.718-0.099-0.853
		c0.254-0.083,0.537,0.043,0.758,0.166c1.552,0.848,3.045,1.915,3.457,3.295c0.292-0.828,1.221-1.516,2.353-1.748
		c-0.587-0.156-1.232-0.036-1.856-0.025c-0.625,0.008-1.365-0.175-1.504-0.618c-0.081-0.258,0.073-0.521,0.229-0.759
		c0.349-0.521,0.74-1.024,1.171-1.51c-0.756,0.37-1.434,0.821-2.006,1.334c-0.407-0.021-0.821-0.302-1.215-0.373
		c-0.747-0.135-0.849-0.142-1.262-0.615c-0.414-0.473-0.507-1.068-0.787-1.669c-0.174,0.531-0.352,1.063-0.528,1.595
		c-0.045,0.131-0.091,0.269-0.204,0.378c-0.395,0.396-1.421,0.298-1.667,0.755c-0.664-0.413-1.317-0.84-1.946-1.281
		c0.184,0.683,0.621,1.328,1.252,1.852c-0.364,0.352-0.54,0.802-0.487,1.241c-0.629,0.063-0.98,0.362-1.608,0.425
		c0.494,0.103,0.984,0.208,1.479,0.311c0.439,0.652,1.061,1.375,1.862,1.836c0.133,0.214,0.407,0.414,0.738,0.575
		c-0.037,0.437-0.072,0.872-0.106,1.311c-0.019,0.206-0.032,0.421,0.067,0.616c0.31,0.604,1.638,0.881,1.488,1.517
		c0.527-0.381,0.503-1.005,0.356-1.538c-0.142-0.52-0.356-1.069-0.135-1.573c0.898-0.096,1.657-0.546,2.353-0.98
		c-0.009,0.035-0.003,0.069,0.011,0.097c-0.224,0.733-0.29,1.496-0.201,2.244c-0.112-0.021-0.234-0.019-0.337,0.022l0.114,0.3
		c-0.708-0.089-1.444,0.381-1.417,0.904c0.56-0.313,1.119-0.625,1.677-0.937c0,0.004,0,0.011,0.001,0.014l0.021,0.118l0.162,0.01
		c0.226,0.015,0.453,0.008,0.675-0.01c-0.465,0.406-0.845,0.909-1.449,1.236c-1.125,0.614-2.53,0.917-3.652,1.537
		c-1.094,0.602-1.873,1.504-2.146,2.482c0.862-1.128,2.215-2.056,3.813-2.617c1.175-0.412,2.493-0.637,3.518-1.228
		c0.689-0.396,1.199-0.931,1.697-1.457c-0.407,0.696-0.811,1.389-1.217,2.084c0.832-0.18,1.286-0.813,1.689-1.374
		c0.32-0.449,0.75-0.921,1.351-1.128c1.1,0.042,2.268,0.259,3.392,0.658c-0.569,1.021-0.604,2.223-0.122,3.351
		c-0.089,0.21-0.095,0.436-0.189,0.646c-0.146,0.325-0.518,0.592-0.97,0.691c0.003-0.5-0.48-0.985-1.136-1.134
		c-0.189-0.042-0.402-0.065-0.536-0.17c-0.076-0.061-0.112-0.137-0.151-0.211c-0.209-0.415-0.415-0.828-0.626-1.242
		c-0.144,0.49-0.397,0.959-0.736,1.394c-0.084,0.008-0.159,0.019-0.231,0.037c-0.129-0.079-0.263-0.159-0.395-0.237
		c-0.388,0.183-0.337,0.593-0.379,0.93c-0.04,0.334-0.482,0.729-0.865,0.542c-0.276-0.136-0.208-0.449-0.362-0.662
		c-0.08-0.11-0.218-0.191-0.352-0.269c-0.953-0.545-1.808-0.161-0.761,0.379c0.387,0.198,0.902,0.34,1.035,0.67
		c0.073,0.18,0.008,0.37-0.03,0.552c-0.106,0.512,0.002,1.048,0.309,1.513c0.074,0.118,0.176,0.237,0.344,0.276
		c0.238,0.055,0.48-0.091,0.586-0.256c0.108-0.163,0.131-0.35,0.24-0.513c0.014-0.018,0.027-0.031,0.039-0.045
		c0.005,0.223,0.022,0.449,0.072,0.676c0.064,0.262,0.179,0.515,0.29,0.758l0.034,0.067c0.642,1.41,1.125,2.871,1.438,4.343
		c0.629,2.959,0.619,5.706-0.03,8.397c-0.431,1.794-0.302,3.61-0.104,5.385c-0.074-0.257-0.161-0.51-0.283-0.761l-0.386,0.234
		c0.966,3.063-0.488,6.346,0.628,9.381c0.087-1.847,0.176-3.695,0.26-5.54c0.018-0.333,0.031-0.667,0.036-1.001
		c0.036,0.394,0.072,0.789,0.09,1.184c0.035,0.695,0.053,1.391,0.075,2.084c0.039,1.492,0.084,3.032,0.279,4.552
		c-0.425-0.157-0.902-0.232-1.38-0.216c-0.407,0.014-0.801,0.088-1.189,0.16c-0.569,0.108-1.108,0.212-1.624,0.108
		c-0.075-0.015-0.148-0.033-0.223-0.054c-0.173-0.046-0.352-0.091-0.557-0.097c-0.282-0.008-0.538,0.074-0.745,0.137l-2.256,0.688
		c-0.44,0.136-0.754,0.006-1.19-0.172c-0.206-0.084-0.439-0.178-0.703-0.245c-1.291-0.34-2.82-0.198-3.968,0.348
		c-0.071-0.222,0.038-0.493,0.148-0.736l0.558-1.192c0.148,0.465,0.442,0.88,0.972,1.188c0.485-0.604,1.393-0.94,2.134-1.386
		c0.744-0.445,1.375-1.164,1.014-1.812c0.577,0.536,1.154,1.066,1.731,1.603c-0.615-1.131-0.923-2.35-0.895-3.564
		c0.053,1.107,1.172,2.017,2.223,2.818c0.405,0.307,0.806,0.613,1.21,0.919c-0.648-0.678-0.958-1.522-0.863-2.347
		c0.09-0.774,0.513-1.613-0.013-2.294c-0.32-0.416-0.925-0.663-1.438-0.96s-0.864-0.738-1.001-1.206
		c-1.342-4.558,0.768-9.419-0.943-13.909c1.662,1.888,2.728,4.05,3.1,6.274c0.089-3.756-3.425-7.331-2.531-11.031
		c-0.376,0.952-0.742,2.011-1.118,2.964c0.24-1.083,0.142-2.205-0.289-3.258c-0.432,1.019-0.93,2.025-1.494,3.012
		c0.022-0.807,0.042-1.619,0.061-2.426c-0.504,0.497-1.008,0.994-1.512,1.491c0.043-0.635,0.237-1.265,0.571-1.853
		c0.685-0.613,1.467-1.165,2.332-1.633c0.003,0.288,0.095,0.576,0.271,0.838c0.246-0.262,0.478-0.527,0.695-0.801
		c0.422,0.448,1.003,0.819,1.673,1.06c-0.362-0.396-0.473-0.907-0.29-1.361c0.101-0.262,0.297-0.522,0.234-0.789
		c-0.034-0.144-0.14-0.273-0.216-0.408c-0.327-0.575-0.101-1.228,0.126-1.827c-0.69,0.414-0.963,1.086-1.195,1.719
		c-0.173-0.484-1.025-0.76-1.634-0.527c-0.334,0.125-0.563,0.365-0.896,0.49c-0.299,0.11-0.73,0.014-0.994-0.11
		c-0.208-0.267-0.328-0.518-0.208-0.783l0.164-0.351l-0.451,0.172c-1.118,0.432-1.89,1.269-2.018,2.186
		c-0.024,0.189-0.406,0.646-0.543,0.672l-0.032,0.146c0.085-1.454,1.936-2.549,2.36-3.972c0.161-0.542,0.108-1.103,0.194-1.652
		c0.084-0.549,0.349-1.127,0.972-1.445c0.095-0.05,0.202-0.094,0.317-0.099c0.269-0.017,0.478,0.16,0.65,0.31
		c0.655,0.563,1.51,0.999,2.459,1.251c-0.834-0.394-1.544-0.933-2.053-1.556c-0.131-0.161-0.251-0.337-0.24-0.522
		c0.01-0.157,0.149-0.318,0.343-0.367l-0.152,0.022c-0.468,0.187-0.936,0.371-1.4,0.557c-0.258,0.102-0.525,0.206-0.704,0.375
		c-0.176,0.163-0.255,0.372-0.333,0.573c-0.24,0.606-0.531,1.2-0.867,1.783c-0.077,0.132-0.159,0.266-0.295,0.37
		c-0.309,0.239-0.848,0.281-1.099,0.55c-0.345,0.372,0.035,0.974-0.418,1.274c-0.284-0.567-0.566-1.136-0.851-1.705
		c-0.064-0.13-0.171-0.283-0.334-0.333c0-0.165,0.03-0.327,0.095-0.485c0.155,0.365,0.527,0.698,1.038,0.773
		c0.146-0.521-0.074-1.062,0.002-1.591c0.074-0.527,0.677-1.105,1.383-0.973c-0.058,0.312-0.12,0.624-0.181,0.937
		c0.179-0.94,1.068-1.799,2.268-2.178c-1.368,0.309-2.804,0.459-4.236,0.452c-0.008-0.003-0.017-0.008-0.025-0.01
		c-0.028-0.009-0.053-0.013-0.081-0.014c0.005-0.03,0.011-0.06,0.014-0.089l-0.048,0.089c-0.08,0-0.155,0.021-0.203,0.063
		l-0.015,0.12c-1.434,0.346-2.823,0.501-4.123,0.467c-0.423-0.011-0.859-0.043-1.277-0.074c-0.52-0.039-1.055-0.082-1.59-0.082
		h-0.046c-0.99,0-1.98,0.128-2.931,0.254c-0.337,0.045-0.673,0.09-1.008,0.127c-1.675,0.192-3.384,0.248-5.078,0.168
		c-0.348-0.018-0.708-0.044-1.025-0.138l-0.058-0.753l2.072-0.137c0.228,0.176,0.544,0.276,0.879,0.276
		c0.676,0,1.224-0.401,1.224-0.889c0-0.494-0.55-0.892-1.224-0.892c-0.471,0-0.897,0.196-1.1,0.503l-1.994,0.016l1.752-17.791V0.4
		l-1.619,4.33l-2.297,18.046l-2.547,0.287c-0.232-0.194-0.567-0.305-0.919-0.305c-0.677,0-1.225,0.4-1.225,0.89
		c0,0.493,0.548,0.893,1.225,0.893c0.329,0,0.642-0.098,0.873-0.271l1.229-0.034l-0.045,0.061h0.023
		c0.011-0.02,0.022-0.042,0.034-0.06l0.1-0.005c-0.016,0.019-0.023,0.04-0.02,0.065h-0.114c-0.303,0.563,0.092,1.226,0.498,1.778
		c0.061,0.083,0.127,0.173,0.237,0.225c0.17,0.082,0.386,0.06,0.585,0.021v0.867c-0.232,0.166-0.363,0.393-0.363,0.628
		c0,0.492,0.549,0.89,1.225,0.89c0.677,0,1.222-0.399,1.222-0.89c0-0.237-0.13-0.462-0.361-0.628v-0.784
		c1.029-0.104,2.1,0.024,3.136,0.153c0.185,0.021,0.369,0.042,0.551,0.065l0.791,0.09c2.292,0.273,4.664,0.553,6.956,0.261
		c2.071-0.263,4.234-0.188,6.258,0.223c0.171,1.381,0.696,2.738,1.539,3.981l-0.031,0.146c0.115,0.013,0.226-0.015,0.346-0.082
		c0.323-0.183,0.64-0.654,0.665-0.854c0.098-0.706,0.65-1.379,1.447-1.794c0.017,0.369,0.31,0.707,0.597,1.035
		c0.246,0.282,0.494,0.571,0.558,0.868c-0.03,0.137-0.092,0.274-0.154,0.407c-0.139,0.289-0.275,0.577-0.417,0.863
		c-0.023,0.035-0.053,0.068-0.077,0.105c-0.647,0.879-0.963,1.876-0.934,2.872c-0.09,0.087-0.178,0.177-0.27,0.267
		c-0.342,0.339-0.689,0.685-0.888,1.081c-0.271,0.546-0.231,1.146-0.173,1.724c0.091,0.87,0.789,1.626,0.835,2.498
		c0.273,5.143,2.056,10.342,0.709,15.395c-0.159,0.602-0.299,1.26-0.27,1.882l-0.418,0.899c-4.203,1.717-7.05,4.985-7.05,8.744
		h-2.461V75h32.399v-7.768h-2.396c0-3.596-2.605-6.743-6.512-8.514c-0.122-1.252-0.161-2.515-0.194-3.744
		c-0.021-0.696-0.037-1.393-0.073-2.088c-0.047-0.91-0.153-1.831-0.258-2.718c-0.234-2.007-0.477-4.078,0.012-6.101
		c0.656-2.725,0.665-5.503,0.028-8.494c-0.315-1.486-0.804-2.965-1.455-4.392l-0.03-0.067c-0.105-0.232-0.218-0.475-0.276-0.716
		c-0.063-0.271-0.063-0.556-0.069-0.834v-0.131c0.279-0.184,0.583-0.352,0.694-0.607c0.12-0.278-0.025-0.572-0.104-0.858
		c-0.077-0.284-0.048-0.633,0.291-0.788c0.095,0.189,0.206,0.39,0.425,0.514c0.223,0.122,0.595,0.122,0.736-0.053
		c0.042,0.019,0.079,0.039,0.118,0.06c0.029,0.056,0.058,0.115,0.083,0.174l0.886,2.082c0.072,0.164,0.167,0.388,0.415,0.529
		c0.411,0.236,1.027,0.106,1.347-0.16c0.303-0.252,0.394-0.587,0.457-0.881c0.031-0.135,0.063-0.27,0.092-0.405
		c0.112-0.49,0.225-0.993,0.258-1.504c0.006-0.009,0.011-0.02,0.02-0.028c0.122-0.19,0.248-0.386,0.242-0.595
		c-0.002-0.096-0.045-0.191-0.111-0.273c0.497-0.457,1.454-0.715,2.918-0.778c1.236-0.053,2.49-0.053,3.73,0
		c0.217,0.006,0.438,0.018,0.655,0.029c1.087,0.053,2.203,0.106,3.298-0.039c0.7-0.092,1.376-0.262,2.035-0.428
		c0.891-0.226,1.731-0.439,2.624-0.474c0.187-0.009,0.377-0.009,0.57-0.009c0.726-0.005,1.471-0.012,2.035-0.335v1.019h-0.608v0.733
		h-5.468v-0.115H180.9v0.117h-2.228v0.526h2.228v1.783l4.255,2.42h-8.435c-0.304,0.178-0.477,0.378-0.477,0.588
		c0,0.758,2.171,1.37,4.857,1.37c2.684,0,4.86-0.613,4.86-1.37c0-0.209-0.354-0.706-0.354-0.706l-4.303-2.449v-1.638h5.468v0.68
		h0.608v1.1h1.01v-1.102h0.612v-0.68h5.458v1.638l-4.305,2.449c0,0-0.353,0.496-0.353,0.705c0,0.759,2.178,1.37,4.86,1.37
		c2.685,0,4.858-0.613,4.858-1.37C199.518,31.464,199.345,31.264,199.04,31.086 M157.592,21.495c0.111,0.025,0.22,0.046,0.328,0.06
		C157.809,21.552,157.697,21.53,157.592,21.495 M160.752,18.467c-0.576,0.226-0.285,1.417-0.618,1.837
		c-0.246,0.307-0.732,0.541-1.211,0.477c-0.484-0.064-0.833-0.506-0.565-0.803c0.207,0.062,0.479,0.049,0.612-0.082
		c0.134-0.131-0.012-0.37-0.233-0.338c-0.145,0.02-0.246,0.133-0.39,0.125c-0.141-0.007-0.211-0.123-0.24-0.222
		c-0.151-0.548,0.131-1.223-0.298-1.638c0.161-0.084,0.312-0.135,0.438-0.13c1,0.041,1.974,0.307,2.781,0.738
		C160.936,18.42,160.847,18.431,160.752,18.467 M149.237,23.684l0.025,0.017c-0.005,0.033-0.009,0.065-0.016,0.097
		c-0.004,0-0.01,0.001-0.018-0.001c-0.042-0.013-0.076-0.04-0.085-0.074L149.237,23.684z M138.126,24.671
		c0.339-0.039,0.678-0.083,1.015-0.126c0.952-0.126,1.939-0.255,2.904-0.25c0.516,0.002,1.043,0.041,1.551,0.078
		c0.427,0.032,0.869,0.066,1.305,0.077c1.37,0.035,2.82-0.128,4.322-0.496c-0.047,0.303-0.093,0.604-0.144,0.906
		c-0.05,0.335-0.094,0.678-0.027,1.011c-0.623-0.068-1.262,0.021-1.886,0.098c-0.685,0.084-1.413,0.142-2.053-0.05
		c-0.644-0.193-1.149-0.715-0.942-1.196c-0.526,0.11-0.163,0.717-0.374,1.084c-0.158,0.27-0.615,0.368-1.016,0.381
		c-1.621,0.06-3.129-0.646-4.75-0.701c-0.938-0.033-1.864,0.155-2.802,0.155c-1.112,0-2.195-0.282-3.088-0.76
		c-0.105-0.057-0.206-0.123-0.302-0.191c0.359,0.105,0.749,0.137,1.123,0.152C134.685,24.926,136.422,24.867,138.126,24.671
		 M142.214,26.725c-0.238,0.021-0.48,0.041-0.722,0.053C141.734,26.758,141.974,26.741,142.214,26.725 M134.037,22.811l0.046-0.098
		c0.115-0.239,0.425-0.403,0.773-0.403c0.452,0,0.819,0.269,0.819,0.597s-0.367,0.596-0.819,0.596c-0.25,0-0.482-0.082-0.639-0.228
		l-0.068-0.062l-0.528,0.035l-1.552-0.423L134.037,22.811z M126.805,23.983l-0.058,0.05c-0.158,0.138-0.386,0.215-0.625,0.215
		c-0.453,0-0.82-0.268-0.82-0.595c0-0.33,0.367-0.597,0.82-0.597c0.263,0,0.513,0.096,0.667,0.252l0.073,0.076l3.101-0.349
		l2.327-18.25l0.818-2.182v0.498l-2.615,20.656h-0.972v0.15L126.805,23.983z M129.089,24.737c-0.073-0.161-0.03-0.347-0.151-0.496
		c-0.007-0.008-0.02-0.016-0.032-0.023l0.615-0.019v0.908C129.331,25.009,129.161,24.896,129.089,24.737 M129.564,27.816
		c0-0.171,0.105-0.337,0.292-0.453l0.072-0.043v-1.094c0.195-0.062,0.367-0.151,0.431-0.292c0.109-0.239-0.149-0.474-0.431-0.624
		v-0.924c0.3,0.264,0.572,0.576,0.76,0.901l-0.2,1.857c0.88,0.839-0.461,1.161-0.461,1.161c0.205,0.057,0.371,0.085,0.514,0.097
		c-0.052,0.009-0.105,0.014-0.159,0.014C129.933,28.415,129.564,28.147,129.564,27.816 M168.794,26.509
		c-0.027,0.012-0.053,0.026-0.081,0.042c-0.095-0.268-0.155-0.54-0.189-0.808c0.05,0.201,0.12,0.402,0.184,0.591
		C168.73,26.39,168.756,26.455,168.794,26.509 M167.457,30.255c-0.118-0.068-0.185-0.186-0.246-0.323
		c0.219,0.18,0.514,0.305,0.821,0.323C167.845,30.326,167.616,30.344,167.457,30.255 M168.705,28.996
		c-0.027,0.134-0.062,0.271-0.089,0.405c-0.054,0.242-0.13,0.513-0.341,0.708c-0.218-0.473-0.344-0.966-0.369-1.461
		c0.227,0.179,0.341,0.431,0.305,0.67c0.212-0.327,0.425-0.656,0.636-0.983C168.808,28.549,168.758,28.769,168.705,28.996
		 M188.774,22.89c0.412,0.431,0.535,0.93,0.331,1.303c-0.061,0.108-0.178,0.211-0.27,0.2c-0.067-0.009-0.124-0.07-0.201-0.162
		c-0.064-0.073-0.138-0.156-0.246-0.219v-1.443C188.528,22.659,188.662,22.768,188.774,22.89"/>
</g>
</svg>
