<?xml version="1.0" encoding="utf-8"?>
<!-- Generator: Adobe Illustrator 16.0.0, SVG Export Plug-In . SVG Version: 6.00 Build 0)  -->
<!DOCTYPE svg PUBLIC "-//W3C//DTD SVG 1.1//EN" "http://www.w3.org/Graphics/SVG/1.1/DTD/svg11.dtd">
<svg version="1.1" id="Layer_1" xmlns="http://www.w3.org/2000/svg" xmlns:xlink="http://www.w3.org/1999/xlink" x="0px" y="0px"
	 width="75px" height="25px" viewBox="0 0 75 25" enable-background="new 0 0 75 25" xml:space="preserve">
<g>
	<path fill="#EE253D" d="M4.81,18.395v-0.801c0.614-0.016,1.034-0.157,1.261-0.423c0.226-0.267,0.352-0.631,0.375-1.092
		c0.025-0.46,0.037-0.989,0.037-1.587V4.31c0-0.437,0.008-0.813,0.023-1.128c0.018-0.315,0.033-0.577,0.049-0.788
		C6.264,2.411,5.973,2.427,5.682,2.443C5.392,2.459,5.101,2.476,4.81,2.492V1.425c0.89-0.016,1.782-0.028,2.679-0.036
		c0.897-0.008,1.83-0.012,2.801-0.012c1.873,0,3.341,0.332,4.398,0.994c1.059,0.663,1.572,1.713,1.541,3.151
		c0,0.518-0.15,1.034-0.449,1.551c-0.3,0.518-0.744,0.974-1.334,1.37c-0.59,0.396-1.329,0.675-2.217,0.835v0.049
		c1.776,0,3.118,0.408,4.023,1.224c0.905,0.816,1.357,1.846,1.357,3.09c0,0.986-0.25,1.836-0.752,2.546
		c-0.5,0.711-1.18,1.257-2.035,1.637c-0.857,0.38-1.836,0.569-2.934,0.569H4.81z M8.52,17.425c0.258,0.017,0.568,0.028,0.933,0.036
		c0.363,0.01,0.703,0.012,1.019,0.012c0.314,0,0.521,0,0.617,0c1.245,0,2.25-0.311,3.019-0.933c0.768-0.621,1.151-1.538,1.151-2.752
		c0-0.985-0.193-1.753-0.582-2.302c-0.388-0.55-0.896-0.938-1.527-1.164c-0.63-0.227-1.316-0.34-2.061-0.34
		c-0.484,0-0.926,0.004-1.32,0.012c-0.396,0.008-0.789,0.029-1.176,0.06v5.479c0,0.437-0.004,0.81-0.013,1.116
		S8.551,17.215,8.52,17.425z M8.592,9.11l1.77-0.048c0.92-0.016,1.648-0.207,2.182-0.57c0.533-0.364,0.917-0.82,1.151-1.37
		c0.234-0.549,0.343-1.123,0.327-1.721c-0.017-0.873-0.214-1.535-0.594-1.987c-0.38-0.453-0.845-0.76-1.395-0.921
		c-0.549-0.161-1.09-0.243-1.624-0.243c-0.533,0-0.93,0.073-1.188,0.219C8.963,2.613,8.793,2.855,8.713,3.195
		C8.631,3.534,8.592,4.003,8.592,4.601V9.11z"/>
	<path fill="#EE253D" d="M26.99,18.395c-0.048-0.274-0.08-0.518-0.096-0.727c-0.018-0.21-0.041-0.429-0.073-0.655
		c-0.55,0.55-1.144,0.981-1.782,1.297s-1.313,0.474-2.023,0.474c-1.229,0-2.143-0.279-2.74-0.837s-0.896-1.24-0.896-2.048
		c0-0.744,0.23-1.387,0.691-1.928c0.46-0.542,1.058-0.986,1.793-1.334c0.735-0.347,1.535-0.605,2.4-0.776
		c0.864-0.169,1.701-0.246,2.51-0.229v-1.503c0-0.566-0.049-1.099-0.146-1.6c-0.097-0.501-0.307-0.914-0.63-1.236
		c-0.323-0.324-0.841-0.493-1.552-0.509c-0.469-0.016-0.949,0.073-1.441,0.267c-0.494,0.194-0.854,0.525-1.08,0.994
		c0.129,0.129,0.215,0.278,0.256,0.448c0.039,0.17,0.06,0.327,0.06,0.473c0,0.194-0.081,0.416-0.243,0.667
		c-0.16,0.251-0.443,0.368-0.848,0.352c-0.339,0-0.598-0.117-0.775-0.352c-0.179-0.233-0.268-0.513-0.268-0.836
		c0-0.549,0.207-1.042,0.619-1.479s0.981-0.784,1.709-1.042c0.727-0.258,1.551-0.388,2.473-0.388c1.357,0,2.359,0.36,3.006,1.079
		s0.961,1.854,0.945,3.406c0,0.598,0,1.2,0,1.806c0,0.606-0.004,1.212-0.012,1.818c-0.009,0.606-0.013,1.217-0.013,1.83
		c0,0.259-0.008,0.519-0.024,0.776c-0.016,0.259-0.04,0.55-0.072,0.872c0.291-0.015,0.578-0.031,0.861-0.048
		c0.281-0.016,0.568-0.032,0.859-0.049v1.019H26.99z M26.773,12.455c-0.551,0.017-1.128,0.085-1.734,0.207
		c-0.605,0.121-1.163,0.303-1.672,0.545c-0.51,0.242-0.922,0.562-1.236,0.957c-0.316,0.396-0.465,0.877-0.449,1.442
		c0.032,0.598,0.23,1.047,0.594,1.346s0.796,0.448,1.297,0.448c0.663,0,1.24-0.125,1.734-0.375c0.492-0.251,0.98-0.603,1.467-1.056
		c-0.018-0.177-0.025-0.371-0.025-0.581s0-0.429,0-0.655c0-0.08,0.004-0.339,0.012-0.775C26.769,13.522,26.773,13.021,26.773,12.455
		z"/>
	<path fill="#EE253D" d="M32.131,17.668c0.5,0,0.848-0.126,1.043-0.376c0.193-0.252,0.307-0.598,0.338-1.043
		c0.033-0.444,0.049-0.957,0.049-1.539V9.182c0-0.258,0.008-0.505,0.024-0.739c0.016-0.234,0.04-0.513,0.073-0.836
		c-0.291,0.016-0.578,0.032-0.861,0.048c-0.282,0.016-0.57,0.032-0.86,0.048V6.685c0.71,0,1.261-0.032,1.648-0.097
		c0.388-0.064,0.683-0.146,0.884-0.242c0.202-0.097,0.36-0.202,0.475-0.315h0.701v9.793c0,0.324-0.004,0.611-0.011,0.861
		c-0.008,0.25-0.037,0.513-0.086,0.787c0.259-0.015,0.513-0.027,0.765-0.036c0.25-0.008,0.504-0.02,0.764-0.036v0.994h-4.945V17.668
		z M34.481,3.631c-0.339,0-0.638-0.137-0.896-0.412c-0.259-0.274-0.388-0.614-0.388-1.018c0-0.404,0.133-0.748,0.4-1.031
		c0.266-0.283,0.569-0.424,0.909-0.424c0.371,0,0.683,0.141,0.933,0.424c0.25,0.283,0.376,0.627,0.376,1.031
		c0,0.404-0.134,0.744-0.4,1.018C35.148,3.494,34.837,3.631,34.481,3.631z"/>
	<path fill="#EE253D" d="M38.699,17.668c0.5,0,0.849-0.126,1.042-0.376c0.195-0.252,0.307-0.598,0.34-1.043
		c0.032-0.444,0.049-0.957,0.049-1.539V3.243c0-0.259,0.004-0.505,0.013-0.739c0.007-0.234,0.026-0.513,0.061-0.836
		c-0.291,0.016-0.579,0.032-0.861,0.048c-0.283,0.017-0.57,0.033-0.86,0.048V0.746c0.71,0,1.265-0.032,1.661-0.097
		c0.396-0.064,0.693-0.145,0.896-0.242c0.201-0.097,0.359-0.202,0.472-0.315h0.703l0.025,15.732c0,0.324-0.009,0.611-0.025,0.861
		s-0.048,0.513-0.097,0.787c0.259-0.015,0.513-0.027,0.765-0.036c0.25-0.008,0.504-0.02,0.763-0.036v0.994h-4.945V17.668z"/>
	<path fill="#EE253D" d="M51.402,18.783c-1.115,0-2.122-0.265-3.019-0.789c-0.896-0.523-1.604-1.269-2.121-2.23
		c-0.517-0.96-0.775-2.097-0.775-3.405c0-1.131,0.254-2.189,0.764-3.176c0.509-0.985,1.224-1.781,2.146-2.388
		c0.919-0.606,1.987-0.909,3.198-0.909c0.679,0,1.313,0.109,1.903,0.328c0.59,0.218,1.11,0.55,1.563,0.994
		c0.452,0.444,0.809,1.002,1.066,1.672c0.259,0.672,0.389,1.459,0.389,2.364l-8.534,0.146c0,1.228,0.134,2.308,0.4,3.236
		c0.268,0.929,0.7,1.648,1.298,2.157c0.597,0.51,1.365,0.764,2.303,0.764c0.501,0,1.014-0.088,1.539-0.267
		c0.525-0.178,1.015-0.42,1.467-0.728c0.452-0.307,0.816-0.646,1.09-1.019l0.582,0.485c-0.436,0.679-0.961,1.221-1.575,1.624
		c-0.614,0.405-1.244,0.695-1.891,0.874C52.55,18.693,51.951,18.783,51.402,18.783z M48.057,10.371h6.183
		c0-0.582-0.086-1.144-0.256-1.685c-0.169-0.542-0.447-0.986-0.836-1.333c-0.388-0.347-0.896-0.521-1.527-0.521
		c-0.938,0-1.717,0.279-2.34,0.836C48.659,8.225,48.25,9.125,48.057,10.371z"/>
	<path fill="#EE253D" d="M60.421,24.964c-0.502,0-0.931-0.12-1.285-0.363c-0.355-0.242-0.534-0.615-0.534-1.115
		c0-0.291,0.097-0.558,0.292-0.8c0.193-0.243,0.444-0.363,0.752-0.363c0.387-0.017,0.649,0.104,0.787,0.363
		c0.137,0.258,0.206,0.485,0.206,0.679c0,0.048,0,0.101,0,0.157s-0.009,0.117-0.023,0.183c0.048,0.031,0.137,0.048,0.267,0.048
		c0.193,0,0.403-0.081,0.63-0.243c0.225-0.162,0.428-0.395,0.606-0.701c0.209-0.357,0.456-0.89,0.738-1.602
		c0.282-0.71,0.602-1.56,0.959-2.545l-3.783-8.097c-0.42-0.904-0.723-1.624-0.909-2.157c-0.186-0.533-0.312-0.929-0.376-1.188
		l-1.163,0.049V6.273h5.018v0.728h-0.097c-0.679,0.048-1.05,0.303-1.114,0.763c-0.065,0.461,0.121,1.16,0.558,2.097l2.837,6.085
		c0.37-1.033,0.726-2.057,1.066-3.067c0.338-1.01,0.678-2.016,1.018-3.018c0.129-0.355,0.263-0.723,0.399-1.103
		c0.138-0.379,0.274-0.719,0.413-1.018c0.137-0.299,0.263-0.489,0.376-0.57l-1.673,0.098V6.273h3.806v0.728
		c-0.598,0.226-1.047,0.602-1.346,1.127c-0.299,0.525-0.603,1.2-0.909,2.024l-3.03,8.461c-0.484,1.357-0.93,2.509-1.334,3.454
		c-0.403,0.945-0.848,1.664-1.332,2.157C61.754,24.718,61.147,24.964,60.421,24.964z"/>
</g>
</svg>
