<?xml version="1.0" encoding="utf-8"?>
<!-- Generator: Adobe Illustrator 16.0.0, SVG Export Plug-In . SVG Version: 6.00 Build 0)  -->
<!DOCTYPE svg PUBLIC "-//W3C//DTD SVG 1.1//EN" "http://www.w3.org/Graphics/SVG/1.1/DTD/svg11.dtd">
<svg version="1.1" id="Layer_1" xmlns="http://www.w3.org/2000/svg" xmlns:xlink="http://www.w3.org/1999/xlink" x="0px" y="0px"
	 width="325px" height="100px" viewBox="0 0 325 100" enable-background="new 0 0 325 100" xml:space="preserve">
<g>
	<path fill="#FFFFFF" d="M85.445,42.25H78.25l3.63-2.836v-2.09h2.425v-0.615H81.88V36.57h-0.346v0.139h-4.656v-0.86H76.36v-1.324
		c0.074,0.101,0.169,0.194,0.316,0.223c0.299,0.059,0.519-0.205,0.616-0.447c0.222-0.551,0.103-1.243-0.317-1.853
		c-0.174-0.252-0.386-0.462-0.615-0.623v-1.938h-0.863v1.598c-0.059-0.006-0.118-0.012-0.176-0.01l-0.565,0.011l0.675,0.437
		c-0.559,0.555-1.24,1.185-2.057,1.386c-0.323,0.079-0.672,0.093-0.979,0.104c-4.15,0.16-8.351,0.045-12.485-0.341l-0.032,0.344
		c4.149,0.387,8.365,0.502,12.53,0.342c0.324-0.013,0.692-0.026,1.049-0.114c0.818-0.201,1.484-0.765,2.041-1.304v1.847
		c-0.011,0.012-0.022,0.023-0.033,0.034l-0.084,0.087c-0.39,0.389-0.989,0.393-1.623,0.397c-0.119,0.001-0.234,0.005-0.35,0.008
		c0.54-0.16,1.08-0.321,1.621-0.482c-1.435-0.08-2.881,0.039-4.283,0.354c-1.036,0.232-2.058,0.571-3.119,0.614
		c-1.061,0.042-2.206-0.271-2.857-1.108c0.102,0.365,0.203,0.73,0.304,1.096c-1.909,0.069-3.761-0.297-5.644-0.338
		c0.06-0.51,0.19-1.003,0.393-1.46l0.066-0.15l-0.146-0.074c-1.552-0.791-3.216-1.066-4.627-0.792
		c-0.337-0.001-0.671,0.053-1.003,0.239c-0.067,0.037-0.126,0.084-0.188,0.13c-0.277,0.082-0.568,0.122-0.858,0.11
		c-0.098-0.856-0.05-1.74,0.125-2.587c0.094,0.011,0.191-0.003,0.269-0.054c0.229-0.15,0.308-0.442,0.382-0.706
		c0.074-0.264,0.185-0.554,0.437-0.662c-0.155,0.066-0.385-0.484-0.679-0.921c0.106,0.11,0.206,0.226,0.299,0.347
		c-0.129-0.651-0.661-1.146-1.217-1.508c-0.557-0.362-1.173-0.648-1.644-1.117c-0.281-0.279-0.449-0.842-0.086-1
		c0.218-0.096,0.459,0.051,0.649,0.194c1.323,0.995,2.598,2.244,2.948,3.862c0.25-0.969,1.043-1.778,2.007-2.048
		c-0.5-0.183-1.051-0.042-1.583-0.031s-1.164-0.204-1.283-0.723c-0.069-0.302,0.061-0.61,0.196-0.889c0.296-0.61,0.63-1.201,1-1.77
		c-0.645,0.433-1.225,0.962-1.715,1.563c-0.346-0.025-0.7-0.354-1.036-0.438c-0.638-0.157-0.724-0.165-1.076-0.72
		c-0.353-0.555-0.433-1.252-0.67-1.954c-0.15,0.622-0.301,1.245-0.452,1.868c-0.038,0.155-0.078,0.315-0.172,0.444
		c-0.338,0.465-1.212,0.349-1.422,0.884c-0.568-0.483-1.123-0.984-1.661-1.501c0.158,0.8,0.53,1.557,1.068,2.169
		c-0.31,0.412-0.461,0.941-0.415,1.455c-0.535,0.075-0.836,0.424-1.372,0.498c0.42,0.122,0.84,0.244,1.261,0.365
		c0.374,0.765,0.905,1.611,1.588,2.149c0.114,0.253,0.348,0.487,0.63,0.675c-0.031,0.512-0.062,1.022-0.092,1.534
		c-0.015,0.243-0.028,0.494,0.057,0.722c0.266,0.709,1.398,1.032,1.269,1.778c0.45-0.448,0.429-1.178,0.306-1.801
		c-0.121-0.611-0.306-1.253-0.117-1.844c0.767-0.111,1.414-0.64,2.006-1.149c-0.007,0.041-0.001,0.079,0.011,0.114
		c-0.192,0.857-0.249,1.753-0.171,2.63c-0.096-0.025-0.201-0.021-0.29,0.024l0.098,0.351c-0.605-0.104-1.232,0.446-1.209,1.061
		c0.476-0.366,0.953-0.731,1.429-1.097c0,0.005,0,0.011,0.001,0.016l0.018,0.138l0.139,0.012c0.191,0.017,0.384,0.009,0.575-0.012
		c-0.398,0.476-0.723,1.063-1.235,1.447c-0.961,0.721-2.159,1.074-3.116,1.801c-0.933,0.707-1.597,1.762-1.832,2.908
		c0.737-1.322,1.89-2.408,3.254-3.065c1.002-0.483,2.127-0.749,3.001-1.438c0.588-0.465,1.023-1.091,1.448-1.708
		c-0.346,0.813-0.692,1.628-1.039,2.442c0.711-0.211,1.099-0.952,1.442-1.61c0.274-0.525,0.64-1.081,1.151-1.323
		c0.94,0.05,1.934,0.305,2.894,0.771c-0.485,1.2-0.519,2.606-0.105,3.928c-0.076,0.246-0.081,0.512-0.161,0.758
		c-0.124,0.381-0.442,0.692-0.826,0.809c0.003-0.588-0.411-1.154-0.972-1.329c-0.161-0.051-0.342-0.078-0.456-0.201
		c-0.063-0.069-0.096-0.159-0.129-0.247c-0.178-0.485-0.355-0.971-0.533-1.456c-0.123,0.573-0.339,1.125-0.629,1.634
		c-0.07,0.009-0.135,0.023-0.195,0.043c-0.112-0.092-0.225-0.184-0.337-0.276c-0.331,0.214-0.29,0.694-0.324,1.087
		s-0.412,0.858-0.738,0.637c-0.235-0.16-0.176-0.524-0.309-0.775c-0.068-0.129-0.187-0.224-0.301-0.314
		c-0.811-0.641-1.54-0.187-0.647,0.444c0.329,0.232,0.768,0.397,0.881,0.784c0.062,0.21,0.006,0.434-0.026,0.649
		c-0.091,0.6,0.002,1.226,0.263,1.773c0.064,0.136,0.152,0.277,0.295,0.321c0.203,0.063,0.41-0.106,0.501-0.299
		c0.091-0.191,0.113-0.411,0.206-0.602c0.009-0.019,0.022-0.035,0.033-0.053c0.004,0.262,0.016,0.527,0.062,0.792
		c0.054,0.308,0.152,0.604,0.248,0.89l0.026,0.077c0.549,1.655,0.962,3.368,1.228,5.09c0.536,3.469,0.528,6.688-0.025,9.843
		c-0.368,2.102-0.258,4.23-0.09,6.31c-0.063-0.302-0.14-0.6-0.243-0.893l-0.326,0.272c0.823,3.591-0.418,7.437,0.535,10.994
		c0.074-2.164,0.148-4.329,0.223-6.493c0.013-0.39,0.026-0.781,0.03-1.173c0.032,0.463,0.06,0.927,0.077,1.389
		c0.029,0.813,0.045,1.628,0.062,2.441c0.036,1.749,0.072,3.555,0.241,5.334c-0.363-0.183-0.771-0.271-1.178-0.254
		c-0.347,0.015-0.686,0.104-1.014,0.19c-0.486,0.127-0.946,0.248-1.387,0.125c-0.064-0.017-0.127-0.04-0.19-0.062
		c-0.147-0.054-0.301-0.107-0.473-0.113c-0.242-0.008-0.459,0.087-0.637,0.161l-1.923,0.807c-0.375,0.157-0.644,0.007-1.016-0.202
		c-0.175-0.098-0.373-0.209-0.599-0.29c-1.101-0.395-2.405-0.232-3.384,0.41c-0.061-0.26,0.032-0.577,0.128-0.863l0.474-1.397
		c0.125,0.545,0.377,1.03,0.828,1.392c0.415-0.707,1.189-1.104,1.822-1.625c0.633-0.52,1.174-1.364,0.865-2.123
		c0.493,0.627,0.985,1.252,1.478,1.878c-0.525-1.324-0.786-2.753-0.764-4.177c0.046,1.299,0.999,2.363,1.897,3.303
		c0.343,0.359,0.687,0.719,1.031,1.078c-0.553-0.794-0.818-1.784-0.736-2.749c0.077-0.91,0.437-1.893-0.01-2.69
		c-0.273-0.488-0.79-0.776-1.228-1.125c-0.438-0.349-0.736-0.866-0.854-1.414c-1.145-5.339,0.655-11.036-0.803-16.298
		c1.416,2.212,2.326,4.745,2.642,7.353c0.078-4.402-2.92-8.591-2.158-12.927c-0.32,1.117-0.632,2.355-0.952,3.474
		c0.204-1.271,0.119-2.586-0.247-3.82c-0.367,1.196-0.792,2.375-1.272,3.53c0.017-0.947,0.034-1.896,0.051-2.843
		c-0.43,0.582-0.859,1.164-1.289,1.746c0.037-0.745,0.201-1.483,0.489-2.173c0.582-0.717,1.25-1.362,1.988-1.916
		c0.002,0.34,0.081,0.678,0.229,0.983c0.211-0.305,0.409-0.617,0.594-0.938c0.359,0.526,0.855,0.959,1.426,1.242
		c-0.309-0.462-0.402-1.062-0.249-1.595c0.088-0.306,0.254-0.609,0.201-0.923c-0.029-0.168-0.119-0.319-0.184-0.477
		c-0.277-0.674-0.085-1.438,0.109-2.141c-0.591,0.487-0.822,1.274-1.021,2.014c-0.146-0.565-0.876-0.889-1.394-0.617
		c-0.283,0.148-0.48,0.429-0.765,0.575c-0.255,0.13-0.622,0.015-0.849-0.128c-0.176-0.314-0.279-0.61-0.175-0.92l0.139-0.41
		l-0.384,0.202c-0.954,0.505-1.613,1.486-1.72,2.56c-0.022,0.221-0.348,0.758-0.465,0.789l-0.027,0.17
		c0.072-1.705,1.652-2.988,2.014-4.656c0.138-0.633,0.092-1.291,0.165-1.935c0.073-0.645,0.299-1.321,0.829-1.694
		c0.082-0.058,0.172-0.108,0.271-0.115c0.23-0.018,0.407,0.188,0.556,0.364c0.557,0.659,1.288,1.17,2.098,1.465
		c-0.713-0.462-1.317-1.091-1.751-1.821C48.093,33.776,47.99,33.57,48,33.353c0.009-0.185,0.127-0.372,0.295-0.429l-0.131,0.024
		c-0.398,0.218-0.797,0.435-1.195,0.651c-0.22,0.12-0.446,0.244-0.6,0.441c-0.15,0.193-0.217,0.437-0.285,0.671
		c-0.205,0.71-0.452,1.408-0.74,2.09c-0.065,0.154-0.135,0.312-0.25,0.434c-0.264,0.278-0.724,0.329-0.938,0.646
		c-0.293,0.436,0.03,1.14-0.357,1.493c-0.241-0.665-0.483-1.331-0.724-1.997c-0.057-0.155-0.148-0.332-0.287-0.393
		c0-0.192,0.025-0.383,0.08-0.567c0.133,0.427,0.451,0.817,0.886,0.906c0.125-0.61-0.063-1.244,0.001-1.863
		c0.063-0.62,0.578-1.297,1.181-1.142c-0.052,0.366-0.104,0.732-0.155,1.098c0.151-1.104,0.911-2.107,1.933-2.553
		c-1.167,0.363-2.39,0.54-3.611,0.531c-0.008-0.004-0.015-0.01-0.023-0.013c-0.022-0.009-0.045-0.013-0.067-0.015
		c0.004-0.035,0.008-0.069,0.012-0.104l-0.042,0.104c-0.068,0.001-0.132,0.025-0.174,0.074l-0.012,0.14
		c-1.224,0.404-2.409,0.587-3.517,0.547c-0.362-0.013-0.732-0.051-1.089-0.088c-0.443-0.045-0.9-0.093-1.357-0.095h-0.038
		c-0.846,0-1.688,0.151-2.501,0.298c-0.287,0.052-0.573,0.104-0.859,0.148c-1.429,0.226-2.886,0.292-4.331,0.199
		c-0.297-0.02-0.604-0.052-0.873-0.162l-0.05-0.883l1.766-0.16c0.197,0.206,0.466,0.322,0.75,0.322c0.576,0,1.045-0.468,1.045-1.044
		s-0.469-1.045-1.045-1.045c-0.401,0-0.764,0.232-0.937,0.59l-1.701,0.019l1.494-20.848v-5.09l-1.381,5.074l-1.966,21.149
		l-2.173,0.336c-0.197-0.226-0.483-0.357-0.784-0.357c-0.576,0-1.045,0.47-1.045,1.045c0,0.577,0.469,1.045,1.045,1.045
		c0.281,0,0.548-0.115,0.745-0.317l1.049-0.041l-0.038,0.07h0.019c0.009-0.023,0.018-0.048,0.028-0.07l0.086-0.004
		c-0.014,0.021-0.021,0.046-0.018,0.074h-0.096c-0.26,0.662,0.079,1.437,0.423,2.084c0.053,0.099,0.109,0.202,0.203,0.265
		c0.144,0.096,0.328,0.068,0.499,0.024v1.014c-0.198,0.196-0.31,0.461-0.31,0.737c0,0.576,0.469,1.045,1.045,1.045
		s1.044-0.469,1.044-1.045c0-0.276-0.112-0.541-0.31-0.737v-0.918c0.879-0.121,1.792,0.029,2.676,0.178
		c0.157,0.026,0.314,0.052,0.47,0.077l0.673,0.107c1.956,0.318,3.979,0.647,5.933,0.306c1.766-0.309,3.612-0.219,5.339,0.258
		c0.146,1.619,0.592,3.211,1.312,4.668l-0.027,0.17c0.097,0.016,0.195-0.016,0.294-0.093c0.276-0.213,0.546-0.768,0.569-1.002
		c0.082-0.828,0.554-1.618,1.233-2.101c0.012,0.431,0.264,0.826,0.51,1.211c0.21,0.329,0.421,0.668,0.475,1.016
		c-0.026,0.161-0.078,0.322-0.132,0.477c-0.118,0.338-0.235,0.675-0.353,1.012c-0.022,0.041-0.045,0.081-0.067,0.122
		c-0.553,1.031-0.822,2.2-0.795,3.366c-0.077,0.104-0.154,0.208-0.23,0.313c-0.293,0.396-0.59,0.802-0.758,1.267
		c-0.23,0.64-0.196,1.341-0.146,2.02c0.077,1.02,0.673,1.906,0.712,2.928c0.234,6.026,1.755,12.121,0.605,18.041
		c-0.136,0.702-0.256,1.476-0.23,2.202l-0.358,1.056c-3.586,2.011-6.014,5.842-6.014,10.245h-2.1v9.104h27.634v-9.104h-2.044
		c0-4.213-2.222-7.901-5.553-9.974c-0.104-1.468-0.137-2.946-0.166-4.388c-0.017-0.815-0.033-1.632-0.063-2.446
		c-0.039-1.067-0.13-2.145-0.219-3.185c-0.2-2.35-0.407-4.779,0.009-7.15c0.56-3.192,0.568-6.448,0.026-9.955
		c-0.269-1.74-0.687-3.473-1.242-5.146l-0.025-0.077c-0.092-0.273-0.187-0.558-0.235-0.84c-0.056-0.317-0.057-0.652-0.059-0.977
		l0-0.155c0.238-0.215,0.498-0.413,0.592-0.712c0.102-0.324-0.022-0.67-0.088-1.004c-0.066-0.333-0.041-0.743,0.247-0.924
		c0.083,0.222,0.175,0.456,0.363,0.601c0.189,0.144,0.506,0.145,0.627-0.06c0.036,0.021,0.068,0.045,0.101,0.069
		c0.025,0.066,0.049,0.135,0.07,0.203l0.757,2.44c0.06,0.192,0.141,0.455,0.353,0.621c0.35,0.274,0.877,0.125,1.148-0.187
		c0.259-0.297,0.338-0.688,0.392-1.032c0.025-0.158,0.051-0.316,0.077-0.475c0.096-0.575,0.191-1.165,0.219-1.762
		c0.006-0.012,0.011-0.024,0.017-0.036c0.104-0.222,0.211-0.453,0.206-0.697c-0.002-0.111-0.037-0.224-0.094-0.319
		c0.424-0.537,1.241-0.837,2.486-0.911c1.057-0.063,2.127-0.063,3.183-0.003c0.187,0.01,0.374,0.022,0.561,0.035
		c0.924,0.062,1.879,0.125,2.812-0.044c0.596-0.107,1.174-0.309,1.734-0.503c0.759-0.264,1.477-0.514,2.241-0.555
		c0.157-0.009,0.32-0.01,0.483-0.011c0.62-0.005,1.257-0.015,1.737-0.393v1.192h-0.518v0.86h-4.664V36.57H69.97v0.139h-1.9v0.615
		h1.9v2.09l3.63,2.836h-7.195c-0.259,0.209-0.408,0.443-0.408,0.69c0,0.888,1.856,1.606,4.146,1.606
		c2.289,0,4.145-0.719,4.145-1.606c0-0.247-0.301-0.827-0.301-0.827l-3.671-2.868v-1.921h4.664v0.798h0.518v1.288h0.863v-1.288
		h0.519v-0.798h4.656v1.921l-3.671,2.868c0,0-0.301,0.58-0.301,0.827c0,0.888,1.856,1.606,4.146,1.606
		c2.289,0,4.145-0.719,4.145-1.606C85.852,42.693,85.703,42.459,85.445,42.25 M50.091,31.011c0.095,0.03,0.189,0.053,0.281,0.069
		C50.277,31.077,50.18,31.053,50.091,31.011 M52.786,27.462c-0.492,0.264-0.243,1.662-0.527,2.152
		c-0.209,0.361-0.623,0.634-1.033,0.559c-0.411-0.074-0.71-0.593-0.481-0.942c0.176,0.072,0.409,0.059,0.522-0.095
		c0.114-0.153-0.011-0.434-0.199-0.397c-0.121,0.023-0.209,0.158-0.333,0.148c-0.119-0.01-0.181-0.144-0.204-0.261
		c-0.131-0.641,0.112-1.43-0.257-1.919c0.137-0.099,0.267-0.158,0.374-0.152c0.854,0.046,1.684,0.359,2.373,0.864
		C52.944,27.408,52.866,27.419,52.786,27.462 M42.964,33.575l0.023,0.02c-0.004,0.038-0.008,0.075-0.013,0.112
		c-0.005,0-0.01,0.001-0.015-0.001c-0.036-0.014-0.063-0.048-0.073-0.087L42.964,33.575z M33.489,34.733
		c0.289-0.045,0.578-0.098,0.867-0.149c0.811-0.146,1.654-0.299,2.476-0.293c0.44,0.003,0.889,0.049,1.324,0.094
		c0.363,0.037,0.739,0.076,1.112,0.09c1.168,0.04,2.406-0.152,3.686-0.58c-0.04,0.354-0.08,0.706-0.121,1.06
		c-0.044,0.394-0.082,0.796-0.022,1.185c-0.531-0.079-1.077,0.027-1.61,0.115c-0.584,0.097-1.204,0.165-1.751-0.059
		c-0.548-0.225-0.98-0.838-0.803-1.402c-0.449,0.13-0.14,0.84-0.321,1.271c-0.133,0.316-0.523,0.429-0.866,0.446
		c-1.382,0.068-2.669-0.758-4.051-0.822c-0.799-0.037-1.59,0.183-2.39,0.183c-0.949,0-1.872-0.328-2.632-0.89
		c-0.091-0.067-0.177-0.144-0.261-0.223c0.308,0.122,0.64,0.158,0.958,0.179C30.553,35.03,32.035,34.963,33.489,34.733
		 M36.975,37.137c-0.204,0.027-0.409,0.049-0.615,0.063C36.565,37.178,36.771,37.157,36.975,37.137 M30,32.553l0.04-0.115
		c0.098-0.282,0.362-0.472,0.658-0.472c0.386,0,0.7,0.313,0.7,0.699s-0.314,0.699-0.7,0.699c-0.211,0-0.409-0.097-0.544-0.266
		l-0.058-0.073l-0.45,0.041l-1.324-0.495L30,32.553z M23.832,33.926l-0.049,0.059c-0.135,0.161-0.329,0.253-0.533,0.253
		c-0.386,0-0.699-0.313-0.699-0.699s0.313-0.699,0.699-0.699c0.226,0,0.439,0.111,0.57,0.297l0.062,0.088l2.645-0.408l1.985-21.389
		l0.697-2.556v0.582l-2.23,24.208h-0.83v0.175L23.832,33.926z M25.781,34.81c-0.063-0.188-0.027-0.408-0.129-0.579
		c-0.006-0.011-0.018-0.02-0.028-0.028l0.525-0.021v1.063C25.987,35.129,25.842,34.996,25.781,34.81 M26.185,38.419
		c0-0.202,0.09-0.396,0.249-0.53l0.061-0.052v-1.281c0.167-0.072,0.313-0.176,0.368-0.343c0.092-0.279-0.126-0.555-0.368-0.733
		v-1.082c0.257,0.31,0.489,0.676,0.649,1.057l-0.171,2.177c0.752,0.982-0.393,1.36-0.393,1.36c0.175,0.067,0.317,0.101,0.439,0.113
		c-0.044,0.009-0.089,0.014-0.136,0.014C26.499,39.118,26.185,38.805,26.185,38.419 M59.648,36.885
		c-0.024,0.016-0.047,0.032-0.07,0.051c-0.081-0.314-0.134-0.631-0.162-0.948c0.042,0.235,0.102,0.471,0.158,0.692
		C59.592,36.748,59.614,36.822,59.648,36.885 M58.507,41.275c-0.102-0.079-0.159-0.216-0.211-0.376
		c0.187,0.208,0.438,0.356,0.7,0.377C58.835,41.36,58.642,41.381,58.507,41.275 M59.571,39.799
		c-0.026,0.158-0.052,0.317-0.078,0.477c-0.044,0.283-0.11,0.6-0.289,0.825c-0.186-0.552-0.294-1.129-0.313-1.711
		c0.192,0.209,0.29,0.504,0.259,0.786c0.181-0.384,0.362-0.769,0.543-1.152C59.657,39.278,59.615,39.536,59.571,39.799
		 M76.69,32.644c0.349,0.506,0.457,1.091,0.281,1.527c-0.052,0.128-0.152,0.25-0.231,0.236c-0.056-0.01-0.104-0.082-0.171-0.19
		c-0.054-0.085-0.118-0.184-0.209-0.258v-1.692C76.479,32.376,76.592,32.501,76.69,32.644"/>
	<g>
		<g>
			<path fill="#FFFFFF" d="M105.435,34.824c4.036,0,11.687,0.939,11.687,8.406c0,3.468-3.098,6.222-6.175,6.958
				c5.441,0.664,9.439,4.391,9.439,8.905c0,7.326-6.972,9.432-12.506,9.432H93.975l0.009-0.562h0.664
				c1.89,0,3.313-1.367,3.365-3.031V38.396c-0.058-1.82-1.479-3.016-3.365-3.016h-0.663l-0.009-0.559L105.435,34.824z
				 M107.842,66.839c4.839,0,8.518-2.392,8.518-7.746c0-7.175-6.986-8.376-13.037-8.376l-0.013-0.563
				c4.088,0,9.864-0.757,9.864-6.929c0-4.705-2.891-6.721-7.813-6.721h-3.82V66.84L107.842,66.839z"/>
			<path fill="#FFFFFF" d="M161.287,64.687c1.146,2.31,2.835,3.273,4.336,3.273h0.424v0.562h-11.538v-0.556h0.446
				c1.281,0,2.721-1.219,1.985-3.372l-3.069-7.476h-14.21l-3.093,7.32c-0.858,2.249,0.619,3.528,1.93,3.528h0.446v0.556h-10.703
				V67.96h0.445c1.495,0,3.252-0.954,4.404-3.244l11.63-24.898c-0.016,0,2.046-4.316,2.162-5.785h0.533L161.287,64.687z
				 M153.18,55.435l-6.311-15.373l-6.495,15.373H153.18z"/>
			<path fill="#FFFFFF" d="M174.474,68.521l0.011-0.562h0.75c2.089,0,3.775-1.355,3.817-3.041V38.423
				c-0.042-1.687-1.73-3.045-3.821-3.045h-0.749l-0.01-0.561h12.725v0.561h-0.757c-2.042,0-3.709,1.305-3.81,2.945v26.639
				c0.066,1.666,1.749,2.998,3.813,2.998h0.749l0.012,0.562H174.474z"/>
			<path fill="#FFFFFF" d="M224.886,60.465l-3.096,8.058h-22.819l0.01-0.563h0.771c1.813,0,3.175-1.324,3.242-2.981V38.424
				c-0.036-1.687-1.521-3.045-3.356-3.045h-0.662l-0.008-0.562h11.637l-0.009,0.562h-0.662c-1.829,0-3.315,1.354-3.354,3.037v28.387
				h8.79c5.392-0.074,7.313-2.705,8.907-6.339H224.886z"/>
			<path fill="#FFFFFF" d="M256.17,68.526h-22.82l0.01-0.563h0.771c1.813,0,3.175-1.325,3.242-2.982V38.323
				c0-1.675-1.418-2.941-3.244-2.941h-0.771l-0.011-0.562h16.41c2.259-0.016,5.298-0.5,6.274-0.88v6.356l-0.61-0.007v-0.864
				c0-1.575-1.107-2.854-2.816-2.887h-11.647v14.291h9.596c1.56-0.032,2.277-1.086,2.277-2.385V47.73l0.611-0.008v7.891
				l-0.611-0.006v-0.713c0-1.262-0.679-2.294-2.146-2.381h-9.728v14.291h8.783c5.397-0.073,7.318-2.705,8.914-6.34h0.609
				L256.17,68.526z"/>
			<path fill="#FFFFFF" d="M302.795,34.818v0.562h-0.713c-2.14,0-4.05,1.359-5.156,2.857l-10.772,16.355v10.324
				c0.032,1.688,1.48,3.044,3.266,3.044h0.646l0.007,0.563h-11.49l0.008-0.563h0.645c1.786,0,3.233-1.356,3.269-3.044V54.514
				l-10.403-16.31c-1.146-1.719-2.997-2.824-5.14-2.824h-0.693v-0.562h13.025v0.562h-0.643c-1.513,0-2.387,1.383-1.919,2.68
				l8.164,14.553l8.719-14.493c0.579-1.394-0.386-2.74-1.918-2.74h-0.644v-0.562L302.795,34.818z"/>
		</g>
		<g>
			<path fill="#FFFFFF" d="M112.728,85.612l-0.323,4.17c-1.583,2.433-4.786,3.925-8.385,3.925c-6.167-0.029-10.045-3.66-10.045-9.56
				c0-5.925,3.882-9.559,10.045-9.559c2.537,0,5.252,0.7,7.13,1.843l0.673,4.301h-0.267c-0.933-3.731-3.774-5.231-7.549-5.231
				c-4.821,0-7.832,3.287-7.832,8.647c0,5.265,3.015,8.573,7.855,8.616c4.539,0.041,8.102-2.162,8.43-7.148L112.728,85.612z"/>
			<path fill="#FFFFFF" d="M134.872,93.282l0.004-0.304h0.35c0.961,0,1.743-0.723,1.773-1.627v-6.626h-11.235v6.625
				c0.03,0.903,0.812,1.628,1.773,1.628h0.349l0.004,0.304h-6.202l0.004-0.304h0.35c0.969,0,1.754-0.736,1.773-1.648V76.971
				c-0.018-0.915-0.804-1.65-1.774-1.65h-0.35l-0.004-0.305h6.203l-0.003,0.305h-0.351c-0.951,0-1.728,0.708-1.771,1.6v6.893h11.234
				v-6.842c-0.017-0.915-0.805-1.65-1.773-1.65h-0.35l-0.004-0.305h6.203l-0.004,0.305h-0.35c-0.95,0-1.725,0.706-1.773,1.596
				v14.442c0.035,0.899,0.815,1.62,1.774,1.62h0.35l0.004,0.304H134.872z"/>
			<path fill="#FFFFFF" d="M166.568,91.204c0.621,1.252,1.537,1.774,2.35,1.774h0.229v0.304h-6.254v-0.301h0.242
				c0.695,0,1.476-0.662,1.077-1.827l-1.663-4.053h-7.702l-1.676,3.969c-0.465,1.219,0.335,1.911,1.046,1.911h0.242v0.301h-5.801
				v-0.303h0.242c0.81,0,1.762-0.52,2.387-1.759l6.303-13.494c-0.009,0,1.108-2.339,1.171-3.136h0.288L166.568,91.204z
				 M162.174,86.189l-3.42-8.33l-3.52,8.33H162.174z"/>
			<path fill="#FFFFFF" d="M199.058,91.309c0.17,1.055,1.073,1.67,2.078,1.67h0.455v0.304h-6.325v-0.288h0.445
				c0.618-0.001,1.2-0.52,1.115-1.178l-1.601-12.53l-5.734,11.314c0,0-0.872,1.849-1.083,3.108h-0.298l-7.332-14.146l-1.367,12.253
				c-0.069,0.631,0.499,1.176,1.115,1.178h0.445v0.288h-5.646v-0.304h0.455c1.023,0,1.938-0.638,2.086-1.727l2.354-16.662h0.3
				l8.039,15.463l7.769-15.453h0.289L199.058,91.309z"/>
			<path fill="#FFFFFF" d="M215.785,75.021c2.187,0,6.333,0.51,6.333,4.554c0,1.881-1.678,3.373-3.347,3.772
				c2.949,0.359,5.116,2.379,5.116,4.825c0,3.972-3.778,5.112-6.778,5.112h-7.535l0.006-0.304h0.358
				c1.024,0,1.796-0.743,1.823-1.643V76.956c-0.031-0.987-0.8-1.635-1.823-1.635h-0.358l-0.005-0.303L215.785,75.021z M217.09,92.37
				c2.622,0,4.617-1.297,4.617-4.198c0-3.888-3.787-4.539-7.065-4.539l-0.009-0.304c2.216,0,5.349-0.412,5.349-3.756
				c0-2.55-1.567-3.643-4.236-3.643h-2.07V92.37H217.09z"/>
			<path fill="#FFFFFF" d="M245.384,93.285h-12.368l0.006-0.304h0.42c0.98,0,1.72-0.72,1.757-1.617V76.916
				c0-0.907-0.77-1.594-1.758-1.594h-0.42l-0.005-0.304h8.893c1.226-0.011,2.873-0.273,3.401-0.479v3.444l-0.33-0.004v-0.468
				c0-0.852-0.602-1.546-1.527-1.563h-6.312v7.744h5.201c0.844-0.017,1.232-0.59,1.232-1.293v-0.388l0.331-0.001v4.274l-0.331-0.003
				v-0.387c0-0.684-0.366-1.242-1.161-1.289h-5.272v7.743h4.76c2.925-0.036,3.966-1.464,4.832-3.435h0.329L245.384,93.285z"/>
			<path fill="#FFFFFF" d="M263.052,75.019c3.836,0,6.188,1.853,6.188,4.929c0,2.582-2.002,4.739-4.733,5.013
				c0.663,0.302,1.692,1.463,2.345,2.387c-0.005,0,1.405,1.908,2.663,3.318c1.24,1.389,2.091,2.299,3.78,2.313v0.305h-0.959
				c-3.367,0-4.698-1.532-5.651-2.679c-0.346-0.414-2.745-3.872-2.982-4.171c-0.826-1.032-1.882-2.049-3.087-2.049v-0.283
				c-0.001,0,0.751,0.014,1.746-0.012c1.684-0.044,3.603-0.06,4.475-2.618c0.146-0.427,0.232-1.067,0.214-1.735
				c-0.064-2.279-1.6-3.62-4.05-3.743c-1.711-0.089-3.211-0.012-3.501-0.028v15.364c0.02,0.914,0.75,1.651,1.729,1.651h0.414
				l0.004,0.304h-6.227l0.007-0.304h0.411c0.962,0,1.688-0.715,1.729-1.609V76.905c-0.03-0.901-0.76-1.584-1.729-1.584h-0.41
				l-0.007-0.304L263.052,75.019z"/>
			<path fill="#FFFFFF" d="M289.958,85.536c0.938,0.788,1.368,2.087,1.378,3.271c0.025,2.717-2.385,4.901-5.389,4.901
				c-1.804,0-4.142-0.439-5.252-1.434c-0.19-0.811-0.112-2.604,0.303-3.779h0.352c-0.27,2.74,1.578,4.376,4.264,4.3
				c2.517-0.072,4.057-1.384,4.057-3.362c0-0.947-0.325-1.724-1.11-2.408l-6.089-4.7c-1.134-0.969-1.44-2.233-1.455-3.29
				c-0.037-2.474,2.217-4.444,5.033-4.444c1.395,0,2.33,0.125,3.013,0.282h1.018l0.046,3.311h-0.35c0-1.686-1.129-2.69-3.517-2.69
				c-2.035,0-3.672,1.285-3.659,2.902c0.005,0.783,0.241,1.63,1.195,2.398L289.958,85.536z"/>
		</g>
	</g>
</g>
</svg>
