<?xml version="1.0" encoding="utf-8"?>
<!-- Generator: Adobe Illustrator 16.0.0, SVG Export Plug-In . SVG Version: 6.00 Build 0)  -->
<!DOCTYPE svg PUBLIC "-//W3C//DTD SVG 1.1//EN" "http://www.w3.org/Graphics/SVG/1.1/DTD/svg11.dtd">
<svg version="1.1" id="Layer_1" xmlns="http://www.w3.org/2000/svg" xmlns:xlink="http://www.w3.org/1999/xlink" x="0px" y="0px"
	 width="325px" height="75px" viewBox="0 12.5 325 75" enable-background="new 0 12.5 325 75" xml:space="preserve">
<g>
	<path fill="#8D99AE" d="M52.387,44.167h-5.901l2.978-2.326v-1.714h1.988v-0.505h-1.988v-0.113h-0.283v0.113h-3.819v-0.705h-0.426
		v-1.085c0.061,0.082,0.138,0.157,0.259,0.182c0.245,0.049,0.425-0.168,0.505-0.366c0.182-0.452,0.084-1.02-0.26-1.52
		c-0.143-0.207-0.316-0.38-0.504-0.513v-1.588h-0.707v1.311c-0.048-0.006-0.097-0.01-0.145-0.009l-0.464,0.009l0.554,0.359
		c-0.458,0.455-1.017,0.971-1.687,1.136c-0.265,0.065-0.551,0.077-0.804,0.086c-3.404,0.131-6.849,0.037-10.239-0.279l-0.027,0.281
		c3.403,0.317,6.861,0.412,10.277,0.281c0.265-0.011,0.567-0.022,0.861-0.093c0.67-0.165,1.217-0.63,1.673-1.07v1.515
		c-0.009,0.009-0.018,0.019-0.027,0.027l-0.069,0.072c-0.318,0.318-0.811,0.322-1.331,0.325c-0.098,0-0.191,0.004-0.287,0.007
		c0.443-0.133,0.885-0.263,1.329-0.396c-1.177-0.064-2.363,0.032-3.512,0.291c-0.85,0.189-1.688,0.469-2.558,0.505
		c-0.872,0.034-1.811-0.224-2.344-0.91c0.084,0.3,0.167,0.598,0.25,0.899c-1.565,0.057-3.085-0.243-4.629-0.277
		c0.05-0.419,0.157-0.823,0.323-1.198l0.053-0.122l-0.12-0.061c-1.272-0.649-2.637-0.873-3.793-0.65
		c-0.278,0-0.552,0.044-0.824,0.196c-0.055,0.03-0.103,0.069-0.154,0.106c-0.227,0.068-0.466,0.101-0.704,0.09
		c-0.08-0.701-0.041-1.427,0.102-2.12c0.079,0.008,0.157-0.004,0.221-0.046c0.188-0.124,0.253-0.361,0.314-0.578
		c0.061-0.217,0.151-0.454,0.357-0.543c-0.126,0.054-0.315-0.396-0.557-0.755c0.087,0.09,0.169,0.185,0.245,0.285
		c-0.106-0.535-0.542-0.941-0.998-1.239c-0.457-0.296-0.962-0.529-1.348-0.914c-0.23-0.229-0.368-0.691-0.07-0.821
		c0.178-0.079,0.375,0.042,0.531,0.16c1.085,0.814,2.131,1.84,2.418,3.167c0.205-0.796,0.854-1.458,1.646-1.68
		c-0.41-0.15-0.862-0.035-1.299-0.025c-0.437,0.009-0.955-0.168-1.052-0.593c-0.058-0.248,0.05-0.501,0.16-0.73
		c0.243-0.5,0.517-0.984,0.82-1.451c-0.529,0.355-1.004,0.789-1.405,1.282c-0.285-0.02-0.574-0.29-0.85-0.358
		c-0.523-0.13-0.594-0.136-0.883-0.591c-0.289-0.455-0.354-1.027-0.549-1.604c-0.123,0.511-0.247,1.022-0.371,1.533
		c-0.031,0.126-0.064,0.258-0.141,0.363c-0.277,0.381-0.994,0.287-1.167,0.726c-0.465-0.397-0.921-0.808-1.361-1.231
		c0.129,0.656,0.435,1.276,0.876,1.779c-0.255,0.338-0.378,0.771-0.34,1.193c-0.44,0.061-0.686,0.348-1.125,0.408
		c0.345,0.1,0.688,0.2,1.034,0.299c0.307,0.627,0.743,1.321,1.303,1.764c0.093,0.206,0.285,0.398,0.516,0.553
		c-0.025,0.42-0.05,0.838-0.075,1.259c-0.012,0.198-0.022,0.405,0.048,0.592c0.217,0.581,1.146,0.847,1.04,1.458
		c0.37-0.366,0.353-0.966,0.251-1.478c-0.1-0.499-0.251-1.027-0.095-1.512c0.628-0.092,1.159-0.525,1.645-0.942
		c-0.006,0.033-0.001,0.066,0.008,0.093c-0.157,0.704-0.203,1.438-0.14,2.157c-0.078-0.021-0.164-0.018-0.237,0.021l0.081,0.288
		c-0.496-0.086-1.01,0.366-0.992,0.869c0.391-0.3,0.782-0.601,1.173-0.9c0,0.004,0,0.011,0.001,0.014l0.015,0.113l0.113,0.01
		c0.158,0.014,0.316,0.007,0.472-0.01c-0.326,0.39-0.592,0.873-1.013,1.188c-0.788,0.591-1.77,0.881-2.555,1.478
		c-0.765,0.578-1.31,1.445-1.502,2.384c0.604-1.084,1.55-1.975,2.668-2.514c0.822-0.396,1.745-0.613,2.461-1.18
		c0.482-0.381,0.839-0.895,1.188-1.4c-0.286,0.668-0.568,1.335-0.852,2.003c0.582-0.173,0.901-0.781,1.181-1.32
		c0.226-0.432,0.525-0.886,0.945-1.084c0.771,0.04,1.586,0.249,2.374,0.632c-0.398,0.982-0.425,2.137-0.087,3.221
		c-0.062,0.202-0.066,0.419-0.131,0.621c-0.102,0.313-0.363,0.568-0.678,0.664c0.002-0.481-0.337-0.946-0.796-1.09
		c-0.133-0.04-0.28-0.063-0.375-0.164c-0.052-0.058-0.078-0.131-0.105-0.203c-0.146-0.398-0.292-0.796-0.438-1.194
		c-0.101,0.471-0.278,0.923-0.516,1.34c-0.058,0.008-0.11,0.019-0.161,0.036c-0.091-0.076-0.184-0.152-0.275-0.228
		c-0.272,0.176-0.238,0.569-0.267,0.894c-0.027,0.321-0.337,0.701-0.605,0.521c-0.193-0.131-0.145-0.431-0.253-0.636
		c-0.056-0.106-0.153-0.184-0.247-0.259c-0.665-0.524-1.264-0.153-0.532,0.365c0.27,0.19,0.631,0.326,0.724,0.643
		c0.05,0.173,0.005,0.356-0.021,0.532c-0.075,0.492,0.001,1.007,0.215,1.454c0.052,0.112,0.124,0.228,0.241,0.264
		c0.167,0.053,0.336-0.088,0.411-0.246c0.075-0.156,0.092-0.336,0.168-0.493c0.009-0.016,0.019-0.029,0.027-0.043
		c0.004,0.214,0.015,0.432,0.051,0.649c0.044,0.252,0.125,0.496,0.203,0.729l0.022,0.064c0.45,1.356,0.789,2.761,1.007,4.174
		c0.439,2.845,0.433,5.485-0.021,8.071c-0.301,1.725-0.212,3.471-0.073,5.176c-0.053-0.246-0.114-0.491-0.2-0.732l-0.268,0.225
		c0.675,2.944-0.342,6.099,0.439,9.016c0.061-1.774,0.122-3.55,0.182-5.324c0.012-0.32,0.021-0.641,0.025-0.963
		c0.026,0.38,0.05,0.76,0.063,1.139c0.025,0.668,0.037,1.336,0.052,2.002c0.028,1.436,0.059,2.916,0.196,4.375
		c-0.297-0.15-0.631-0.222-0.965-0.207c-0.285,0.013-0.562,0.084-0.832,0.154c-0.398,0.104-0.776,0.204-1.137,0.103
		c-0.052-0.014-0.104-0.031-0.156-0.051c-0.121-0.044-0.247-0.087-0.389-0.092c-0.197-0.007-0.377,0.071-0.522,0.131l-1.577,0.662
		c-0.308,0.13-0.528,0.006-0.833-0.165c-0.144-0.08-0.307-0.171-0.492-0.237c-0.902-0.325-1.972-0.19-2.775,0.335
		c-0.05-0.213,0.026-0.473,0.104-0.708l0.39-1.146c0.103,0.447,0.309,0.846,0.679,1.143c0.34-0.58,0.975-0.905,1.494-1.332
		c0.52-0.428,0.962-1.119,0.709-1.741c0.404,0.514,0.808,1.025,1.212,1.539c-0.431-1.086-0.646-2.257-0.626-3.425
		c0.037,1.064,0.819,1.938,1.556,2.708c0.282,0.295,0.563,0.59,0.845,0.884c-0.453-0.651-0.67-1.463-0.603-2.254
		c0.062-0.747,0.358-1.552-0.009-2.206c-0.224-0.4-0.648-0.637-1.007-0.924c-0.359-0.285-0.604-0.709-0.7-1.158
		c-0.939-4.381,0.537-9.052-0.659-13.368c1.162,1.814,1.908,3.892,2.167,6.031c0.063-3.611-2.395-7.047-1.77-10.603
		c-0.263,0.915-0.518,1.933-0.781,2.849c0.168-1.042,0.098-2.12-0.203-3.132c-0.301,0.98-0.649,1.947-1.044,2.895
		c0.015-0.776,0.029-1.556,0.043-2.331c-0.353,0.476-0.705,0.954-1.058,1.432c0.031-0.61,0.166-1.216,0.4-1.781
		c0.478-0.588,1.026-1.118,1.631-1.57c0.002,0.277,0.066,0.554,0.189,0.806c0.172-0.252,0.334-0.507,0.486-0.77
		c0.295,0.43,0.702,0.786,1.17,1.018c-0.253-0.38-0.33-0.871-0.203-1.308c0.071-0.252,0.208-0.501,0.164-0.757
		c-0.024-0.139-0.098-0.263-0.15-0.393c-0.229-0.553-0.07-1.179,0.088-1.756c-0.484,0.399-0.674,1.045-0.836,1.653
		c-0.121-0.465-0.718-0.73-1.144-0.507c-0.233,0.121-0.394,0.352-0.627,0.472c-0.209,0.105-0.51,0.012-0.695-0.106
		c-0.146-0.257-0.229-0.498-0.146-0.753l0.115-0.337l-0.315,0.165c-0.782,0.415-1.322,1.22-1.411,2.1
		c-0.017,0.182-0.284,0.622-0.38,0.647l-0.023,0.14c0.06-1.397,1.355-2.45,1.652-3.817c0.113-0.521,0.075-1.06,0.135-1.588
		c0.06-0.529,0.245-1.084,0.68-1.389c0.067-0.048,0.142-0.09,0.222-0.095c0.189-0.016,0.334,0.154,0.455,0.298
		c0.458,0.541,1.057,0.96,1.721,1.202c-0.584-0.379-1.081-0.896-1.436-1.495c-0.093-0.155-0.177-0.324-0.169-0.502
		c0.007-0.151,0.105-0.306,0.241-0.353l-0.107,0.021c-0.327,0.18-0.654,0.356-0.98,0.535c-0.18,0.098-0.366,0.198-0.491,0.361
		c-0.124,0.157-0.179,0.357-0.234,0.551c-0.168,0.582-0.371,1.153-0.607,1.713c-0.053,0.127-0.111,0.256-0.206,0.355
		c-0.216,0.23-0.593,0.271-0.769,0.53c-0.241,0.357,0.024,0.936-0.293,1.225c-0.198-0.546-0.396-1.092-0.594-1.639
		c-0.046-0.125-0.121-0.271-0.235-0.321c0-0.157,0.021-0.314,0.067-0.465c0.108,0.35,0.369,0.67,0.726,0.743
		c0.102-0.501-0.052-1.021,0.001-1.529c0.051-0.507,0.473-1.063,0.967-0.936c-0.041,0.3-0.084,0.6-0.126,0.9
		c0.125-0.904,0.747-1.729,1.585-2.093c-0.957,0.296-1.96,0.441-2.962,0.435c-0.006-0.003-0.012-0.009-0.018-0.01
		c-0.019-0.008-0.037-0.012-0.056-0.013c0.003-0.029,0.007-0.058,0.009-0.086l-0.034,0.086c-0.055,0-0.108,0.02-0.141,0.06
		l-0.011,0.115c-1.003,0.332-1.975,0.481-2.884,0.449c-0.296-0.011-0.601-0.042-0.893-0.072c-0.364-0.037-0.738-0.078-1.113-0.078
		h-0.032c-0.693,0-1.385,0.123-2.05,0.244c-0.236,0.043-0.471,0.086-0.705,0.122c-1.172,0.185-2.367,0.238-3.552,0.162
		c-0.244-0.017-0.496-0.042-0.717-0.133l-0.041-0.724l1.449-0.132c0.16,0.169,0.381,0.265,0.616,0.265
		c0.472,0,0.856-0.385,0.856-0.855c0-0.474-0.385-0.857-0.856-0.857c-0.33,0-0.628,0.189-0.77,0.484l-1.395,0.015l1.226-17.099
		v-4.175l-1.133,4.161L3.803,36.179l-1.782,0.276c-0.162-0.187-0.397-0.293-0.643-0.293c-0.473,0-0.857,0.385-0.857,0.856
		c0,0.473,0.384,0.857,0.857,0.857c0.23,0,0.449-0.094,0.611-0.26l0.86-0.033L2.817,37.64h0.016c0.008-0.019,0.016-0.04,0.024-0.057
		l0.07-0.005c-0.011,0.018-0.017,0.038-0.014,0.062h-0.08c-0.212,0.542,0.065,1.179,0.348,1.71c0.043,0.08,0.089,0.165,0.166,0.217
		c0.119,0.078,0.27,0.056,0.41,0.02v0.832c-0.163,0.16-0.254,0.378-0.254,0.604c0,0.473,0.384,0.856,0.857,0.856
		s0.855-0.384,0.855-0.856c0-0.227-0.091-0.444-0.253-0.604v-0.753c0.72-0.099,1.469,0.023,2.194,0.146
		c0.129,0.021,0.258,0.041,0.385,0.063l0.553,0.087c1.604,0.262,3.263,0.531,4.866,0.251c1.449-0.253,2.962-0.18,4.378,0.214
		c0.12,1.327,0.486,2.632,1.076,3.827l-0.021,0.14c0.08,0.013,0.159-0.013,0.242-0.078c0.226-0.175,0.448-0.628,0.465-0.821
		c0.068-0.679,0.455-1.325,1.012-1.723c0.011,0.354,0.216,0.678,0.418,0.993c0.172,0.271,0.346,0.549,0.39,0.834
		c-0.021,0.132-0.064,0.264-0.108,0.391c-0.096,0.277-0.193,0.555-0.291,0.831c-0.017,0.033-0.037,0.065-0.054,0.1
		c-0.453,0.845-0.674,1.804-0.653,2.76c-0.063,0.085-0.125,0.17-0.188,0.257c-0.24,0.325-0.483,0.658-0.622,1.039
		c-0.189,0.524-0.161,1.101-0.12,1.657c0.063,0.836,0.551,1.563,0.583,2.4c0.192,4.943,1.439,9.941,0.497,14.796
		c-0.112,0.578-0.209,1.212-0.189,1.809l-0.293,0.864c-2.941,1.65-4.932,4.791-4.932,8.404h-1.722v7.466h22.664v-7.466h-1.675
		c0-3.456-1.822-6.48-4.555-8.182c-0.085-1.203-0.113-2.416-0.137-3.599c-0.014-0.669-0.026-1.339-0.051-2.007
		c-0.032-0.874-0.107-1.759-0.18-2.611c-0.164-1.929-0.334-3.92,0.008-5.864c0.46-2.619,0.465-5.288,0.021-8.164
		c-0.222-1.427-0.563-2.849-1.019-4.22l-0.021-0.064c-0.075-0.224-0.153-0.457-0.193-0.689c-0.046-0.26-0.046-0.534-0.049-0.802
		v-0.126c0.196-0.176,0.409-0.339,0.486-0.584c0.084-0.267-0.018-0.55-0.073-0.824c-0.053-0.272-0.033-0.608,0.204-0.757
		c0.067,0.182,0.144,0.375,0.297,0.493c0.156,0.118,0.415,0.119,0.515-0.05c0.03,0.018,0.056,0.037,0.083,0.057
		c0.021,0.054,0.041,0.111,0.058,0.167l0.62,2.001c0.05,0.157,0.117,0.373,0.29,0.509c0.287,0.227,0.719,0.103,0.941-0.154
		c0.213-0.241,0.277-0.563,0.322-0.846c0.021-0.13,0.042-0.259,0.063-0.39c0.079-0.471,0.156-0.954,0.18-1.445
		c0.004-0.009,0.008-0.019,0.013-0.028c0.087-0.183,0.174-0.371,0.17-0.571c-0.002-0.092-0.031-0.185-0.077-0.263
		c0.347-0.439,1.017-0.687,2.04-0.747c0.866-0.051,1.743-0.051,2.61-0.001c0.153,0.007,0.306,0.017,0.46,0.028
		c0.758,0.05,1.541,0.102,2.306-0.037c0.489-0.089,0.962-0.252,1.423-0.413c0.623-0.216,1.211-0.421,1.837-0.455
		c0.13-0.008,0.263-0.008,0.397-0.008c0.509-0.005,1.03-0.012,1.425-0.323v0.979h-0.426v0.705h-3.825v-0.11h-0.283v0.113h-1.558
		v0.505h1.558v1.714l2.977,2.326h-5.901c-0.212,0.171-0.334,0.363-0.334,0.565c0,0.729,1.521,1.316,3.4,1.316
		c1.876,0,3.399-0.589,3.399-1.316c0-0.202-0.247-0.678-0.247-0.678l-3.011-2.354v-1.574h3.825v0.653h0.426v1.057h0.707V40.78h0.427
		v-0.653h3.819v1.574l-3.011,2.354c0,0-0.247,0.476-0.247,0.678c0,0.729,1.523,1.316,3.4,1.316c1.878,0,3.399-0.589,3.399-1.316
		C52.721,44.53,52.599,44.338,52.387,44.167 M23.392,34.948c0.077,0.024,0.154,0.044,0.23,0.058
		C23.544,35.003,23.465,34.982,23.392,34.948 M25.602,32.038c-0.403,0.217-0.199,1.362-0.432,1.766
		c-0.171,0.295-0.511,0.52-0.847,0.458c-0.338-0.062-0.583-0.486-0.395-0.772c0.145,0.06,0.335,0.048,0.428-0.078
		c0.094-0.126-0.008-0.356-0.163-0.325c-0.1,0.019-0.172,0.128-0.273,0.12c-0.098-0.007-0.148-0.118-0.167-0.213
		c-0.107-0.526,0.091-1.175-0.21-1.574c0.113-0.081,0.219-0.13,0.307-0.125c0.7,0.039,1.381,0.295,1.945,0.709
		C25.731,31.993,25.668,32.003,25.602,32.038 M17.547,37.052l0.018,0.016c-0.003,0.032-0.006,0.063-0.011,0.093
		c-0.003,0-0.007,0.001-0.012-0.001c-0.03-0.013-0.053-0.039-0.06-0.071L17.547,37.052z M9.775,38.001
		c0.237-0.037,0.474-0.08,0.71-0.121c0.666-0.121,1.357-0.245,2.031-0.24c0.361,0.002,0.73,0.04,1.085,0.076
		c0.299,0.03,0.608,0.063,0.913,0.073c0.958,0.034,1.973-0.123,3.023-0.476c-0.033,0.291-0.065,0.58-0.1,0.87
		c-0.035,0.323-0.066,0.652-0.018,0.972c-0.436-0.065-0.883,0.021-1.32,0.094c-0.479,0.081-0.988,0.136-1.436-0.048
		c-0.45-0.185-0.804-0.688-0.659-1.149c-0.368,0.105-0.114,0.688-0.262,1.042c-0.11,0.26-0.43,0.353-0.71,0.366
		c-1.134,0.057-2.189-0.621-3.323-0.674c-0.656-0.031-1.304,0.149-1.96,0.149c-0.778,0-1.535-0.27-2.16-0.73
		c-0.074-0.055-0.144-0.118-0.212-0.183c0.252,0.101,0.524,0.13,0.786,0.146C7.367,38.246,8.583,38.189,9.775,38.001 M12.635,39.974
		c-0.167,0.021-0.336,0.039-0.505,0.051C12.299,40.007,12.467,39.99,12.635,39.974 M6.914,36.213l0.032-0.094
		c0.081-0.23,0.297-0.388,0.541-0.388c0.316,0,0.573,0.258,0.573,0.574s-0.257,0.573-0.573,0.573c-0.175,0-0.337-0.079-0.447-0.219
		l-0.048-0.06l-0.369,0.034l-1.086-0.407L6.914,36.213z M1.855,37.34l-0.04,0.048c-0.111,0.133-0.27,0.207-0.437,0.207
		c-0.317,0-0.574-0.257-0.574-0.572c0-0.317,0.257-0.574,0.574-0.574c0.184,0,0.359,0.092,0.467,0.243l0.051,0.073l2.169-0.336
		l1.628-17.541l0.572-2.097v0.479L4.436,37.123H3.756v0.144L1.855,37.34z M3.453,38.064c-0.051-0.154-0.021-0.333-0.106-0.476
		c-0.005-0.008-0.014-0.015-0.022-0.022l0.43-0.018v0.872C3.622,38.326,3.503,38.217,3.453,38.064 M3.785,41.024
		c0-0.165,0.074-0.325,0.205-0.436l0.05-0.042v-1.051c0.137-0.059,0.257-0.145,0.302-0.281c0.076-0.229-0.104-0.455-0.302-0.6
		v-0.888c0.21,0.254,0.401,0.553,0.532,0.866l-0.14,1.785c0.616,0.806-0.322,1.116-0.322,1.116c0.143,0.055,0.259,0.082,0.359,0.093
		C4.433,41.595,4.396,41.6,4.358,41.6C4.043,41.599,3.785,41.342,3.785,41.024 M31.229,39.767c-0.019,0.012-0.038,0.026-0.056,0.042
		c-0.067-0.258-0.111-0.519-0.133-0.777c0.034,0.192,0.083,0.386,0.129,0.567C31.184,39.653,31.201,39.716,31.229,39.767
		 M30.294,43.367c-0.083-0.065-0.13-0.178-0.172-0.31c0.151,0.173,0.359,0.293,0.574,0.31
		C30.564,43.435,30.404,43.453,30.294,43.367 M31.166,42.157c-0.02,0.129-0.042,0.261-0.063,0.39
		c-0.036,0.232-0.09,0.493-0.238,0.679c-0.152-0.455-0.24-0.928-0.257-1.404c0.158,0.172,0.238,0.414,0.213,0.645
		c0.148-0.315,0.297-0.631,0.444-0.945C31.238,41.729,31.203,41.94,31.166,42.157 M45.206,36.289
		c0.288,0.414,0.375,0.894,0.232,1.252c-0.043,0.104-0.126,0.203-0.189,0.193c-0.047-0.009-0.087-0.068-0.142-0.156
		c-0.044-0.07-0.096-0.15-0.171-0.211V35.98C45.034,36.067,45.127,36.172,45.206,36.289"/>
	<g>
		<path fill="#8D99AE" d="M92.968,33.251c3.18-1.424,6.039-4.47,6.039-8.315c0-9.337-9.226-10.731-14.725-10.731L69.828,14.2
			l0.026,1.682h1.299c2.09,0,3.536,1.281,3.596,3.171v32.278c-0.056,1.797-1.635,3.205-3.596,3.205h-1.3l-0.026,1.686h17.431
			c7.6,0,15.72-3.147,15.72-11.979C102.979,39.062,98.871,34.666,92.968,33.251z M80.044,17.25h4.149
			c6.062,0,9.009,2.512,9.009,7.679c0,5.413-3.656,7.934-11.505,7.934h-0.511l0.037,1.685h0.489c10.484,0,15.367,3.081,15.367,9.695
			c0,5.673-3.596,8.927-9.866,8.927l-7.169,0.001V17.25z"/>
		<path fill="#8D99AE" d="M125.565,54.54h-1.042c-0.697,0-1.377-0.356-1.773-0.932c-0.477-0.692-0.516-1.621-0.117-2.669
			l3.637-8.601h16.627l3.597,8.76c0.344,1.006,0.278,1.884-0.19,2.539c-0.398,0.557-1.069,0.902-1.751,0.902h-1.043v1.677h15.042
			v-1.683h-1.015c-1.901,0-3.662-1.351-4.822-3.689l-17.016-37.602h-1.435l-0.036,0.461c-0.052,0.658-0.52,2.332-2.453,6.571
			c-0.054,0.119-0.098,0.215-0.129,0.297l-0.003-0.001L117.493,50.86c-1.157,2.301-2.994,3.674-4.913,3.674h-1.041v1.683h14.025
			V54.54z M127.56,39.291l7.144-16.91l6.941,16.91H127.56z"/>
		<path fill="#8D99AE" d="M169.233,54.532h-1.402l-0.033,1.685h16.516l-0.039-1.683h-1.4c-2.214,0-4.072-1.422-4.141-3.15
			l-0.001-32.389c0.107-1.747,1.925-3.116,4.138-3.116h1.42v-1.683h-16.493l0.029,1.683h1.401c2.246,0,4.108,1.444,4.152,3.206
			v32.233C173.335,53.091,171.475,54.532,169.233,54.532z"/>
		<path fill="#8D99AE" d="M228.462,45.709c-2.034,4.634-4.387,7.333-10.382,7.416h-10.199V19.089
			c0.042-1.769,1.649-3.208,3.582-3.208h1.296l0.029-1.685h-15.178l0.023,1.685h1.298c1.938,0,3.547,1.443,3.586,3.205v32.298
			c-0.072,1.796-1.555,3.15-3.447,3.15h-1.429l-0.029,1.684h28.624l4.151-10.808h-1.794L228.462,45.709z"/>
		<path fill="#8D99AE" d="M240.91,15.884c1.965,0,3.447,1.324,3.447,3.08v32.424c-0.071,1.795-1.552,3.148-3.445,3.148h-1.428
			l-0.033,1.686h28.627l4.149-10.812h-1.796l-0.132,0.299c-2.033,4.635-4.387,7.334-10.39,7.418h-10.189V36.734l11.309-0.001
			c1.934,0.113,2.143,1.715,2.143,2.398v1.362l1.742,0.019V29.896l-1.742,0.023v1.361c0,0.708-0.223,2.361-2.271,2.403h-11.18
			V17.291h13.664c1.73,0.033,2.939,1.272,2.939,3.014v1.546l1.74,0.019v-8.972l-0.682,0.266c-1.159,0.452-4.828,1.02-7.453,1.037
			H239.45l0.029,1.684H240.91z"/>
		<path fill="#8D99AE" d="M309.69,14.198v1.684h1.283c0.747,0,1.385,0.313,1.748,0.857c0.339,0.509,0.385,1.16,0.157,1.72
			L302.71,35.361l-9.48-16.887c-0.224-0.62-0.145-1.27,0.216-1.784c0.366-0.521,0.952-0.808,1.65-0.808h1.283v-1.684h-16.854v1.684
			h1.344c2.351,0,4.479,1.172,5.834,3.207l12.582,19.727v12.502c-0.037,1.773-1.598,3.217-3.479,3.217h-1.278l-0.023,1.684h14.998
			l-0.023-1.684h-1.278c-1.882,0-3.441-1.442-3.475-3.206V38.914l13.012-19.758c1.17-1.583,3.328-3.274,5.873-3.274h1.367v-1.684
			H309.69z"/>
		<path fill="#8D99AE" d="M92.334,76.488c-0.344,5.231-3.846,8.232-9.608,8.232l-0.149-0.001c-5.591-0.049-9.064-3.875-9.064-9.984
			c0-6.184,3.461-10.024,9.032-10.024c4.781,0,7.708,2.015,8.702,5.988l0.094,0.379h1.3l-0.946-6.041l-0.198-0.12
			c-2.347-1.43-5.771-2.317-8.938-2.317c-7.849,0-12.725,4.649-12.725,12.134c0,7.448,4.875,12.098,12.723,12.135h0.002
			c4.544,0,8.615-1.917,10.624-5.004l0.07-0.106l0.446-5.752l-1.335,0.024L92.334,76.488z"/>
		<path fill="#8D99AE" d="M127.229,84.984c-0.898,0-1.627-0.655-1.66-1.473l-0.001-17.549c0.046-0.824,0.774-1.47,1.659-1.47h0.919
			l0.02-1.37h-8.564l0.018,1.37h0.92c0.898,0,1.642,0.682,1.658,1.509v7.827h-12.672l0-7.866c0.039-0.825,0.767-1.472,1.656-1.472
			h0.923l0.011-1.371h-8.559l0.016,1.371h0.921c0.898,0,1.643,0.681,1.659,1.508v17.467c-0.017,0.836-0.76,1.516-1.657,1.516h-0.92
			l-0.018,1.37h8.561l-0.016-1.37h-0.919c-0.902,0-1.63-0.658-1.658-1.481v-7.563h12.674l0,7.549
			c-0.028,0.839-0.757,1.496-1.659,1.496h-0.92l-0.018,1.372h8.567l-0.023-1.369H127.229z"/>
		<path fill="#8D99AE" d="M159.14,83.115l-9.283-20.514h-1.136l-0.036,0.461c-0.026,0.336-0.273,1.21-1.301,3.47
			c-0.028,0.063-0.055,0.121-0.076,0.177l-0.002-0.001l-7.665,16.408c-0.589,1.168-1.508,1.865-2.459,1.865h-0.794v1.37h8.06v-1.367
			h-0.795c-0.299,0-0.602-0.159-0.771-0.405c-0.213-0.31-0.225-0.739-0.04-1.226l1.91-4.524h8.707l1.886,4.595
			c0.161,0.471,0.136,0.874-0.073,1.167c-0.174,0.242-0.466,0.394-0.764,0.394h-0.795v1.367h8.611v-1.37h-0.777
			C160.605,84.981,159.725,84.295,159.14,83.115z M152.591,76.72h-6.947l3.524-8.339L152.591,76.72z"/>
		<path fill="#8D99AE" d="M198.722,83.378l-3.033-20.764h-1.093l-9.154,18.207l-9.474-18.221h-1.104l-2.924,20.712
			c-0.156,1.153-1.14,1.669-2.044,1.669h-1.055v1.37h7.873v-1.351h-1.041c-0.242-0.001-0.49-0.116-0.662-0.309
			c-0.087-0.098-0.228-0.301-0.198-0.568l1.479-13.276l8.306,16.023h1.091l0.069-0.418c0.241-1.444,1.266-3.629,1.27-3.639
			l6.244-12.318l1.741,13.637c0.033,0.257-0.078,0.445-0.177,0.559c-0.171,0.194-0.427,0.311-0.685,0.311h-1.041v1.351h8.697v-1.371
			h-1.053C199.872,84.981,198.9,84.483,198.722,83.378z"/>
		<path fill="#8D99AE" d="M223.922,73.613c1.567-0.888,2.871-2.481,2.871-4.444c0-3.84-2.991-6.042-8.207-6.042l-8.066-0.004
			l0.021,1.368h0.926c1,0,1.691,0.605,1.721,1.49v17.487c-0.025,0.85-0.781,1.516-1.721,1.516h-0.923l-0.029,1.369h9.681
			c4.23,0,8.75-1.766,8.75-6.722C228.946,76.891,226.912,74.541,223.922,73.613z M216.518,65.232h2.02
			c3.176,0,4.654,1.25,4.654,3.935c0,2.777-1.909,4.071-6.01,4.071h-0.517l0.044,1.369h0.484c5.526,0,8.1,1.597,8.1,5.024
			c0,4.16-3.581,4.609-5.121,4.609h-3.654V65.232z"/>
		<path fill="#8D99AE" d="M255.79,80.333c-1.092,2.487-2.281,3.843-5.423,3.882h-5.291v-8.424l5.887-0.001
			c0.779,0.047,0.943,0.607,0.943,1.07v0.966l1.4,0.014v-6.21l-1.4,0.006v0.97c0,0.48-0.176,1.057-1.002,1.073h-5.828v-8.424h7.173
			c0.805,0.014,1.366,0.591,1.366,1.402v1.064l1.402,0.014v-5.428l-0.682,0.267c-0.541,0.211-2.443,0.535-3.957,0.549h-11.332
			l0.021,1.37h1.004c0.936,0,1.641,0.619,1.641,1.439v17.563c-0.036,0.849-0.741,1.488-1.641,1.488h-0.999l-0.029,1.37h15.907
			l2.427-6.32h-1.456L255.79,80.333z"/>
		<path fill="#8D99AE" d="M284.35,82.335c-1.389-1.558-2.955-3.647-3.18-3.957l-0.027-0.038c-0.447-0.633-1.238-1.627-2.023-2.338
			c2.933-0.798,5.021-3.365,5.021-6.379c0-4.008-3.076-6.498-8.029-6.498l-9.798-0.002l0.029,1.368h0.987
			c0.902,0,1.577,0.607,1.604,1.429l0.001,17.584c-0.038,0.844-0.728,1.48-1.604,1.48h-0.989l-0.029,1.37h8.594l-0.014-1.37h-1.001
			c-0.895,0-1.584-0.653-1.604-1.509v-18.2l0.192-0.003c0.781-0.013,2.099-0.037,3.544,0.038c2.762,0.139,4.385,1.622,4.453,4.069
			c0.021,0.724-0.066,1.448-0.233,1.938c-0.934,2.741-2.863,2.791-4.987,2.846c-1.188,0.032-2.098,0.014-2.102,0.015l-0.51-0.01
			v1.354h0.5c1.022,0,2.125,0.754,3.367,2.303c0.115,0.146,0.661,0.922,1.296,1.824c1.177,1.671,2.097,2.973,2.339,3.264
			c1.139,1.37,2.86,3.44,7.264,3.44h1.666v-1.368l-0.496-0.004C286.784,84.967,285.895,84.063,284.35,82.335z"/>
		<path fill="#8D99AE" d="M309.162,76.027l-7.491-5.765c-0.871-0.701-1.262-1.481-1.269-2.532c-0.005-0.67,0.27-1.305,0.795-1.834
			c0.753-0.759,1.904-1.194,3.158-1.194c2.509,0,3.781,0.934,3.781,2.773v0.5h1.433l-0.07-5.029h-1.677
			c-1.026-0.23-2.245-0.343-3.723-0.343c-1.934,0-3.761,0.729-5.013,2c-1.062,1.077-1.634,2.468-1.612,3.917
			c0.027,1.798,0.7,3.311,1.966,4.392l7.388,5.702c0.815,0.71,1.18,1.497,1.18,2.553c0,2.136-1.706,3.513-4.451,3.592l-0.202,0.003
			c-1.487,0-2.743-0.481-3.536-1.355c-0.748-0.825-1.073-1.978-0.939-3.332l0.054-0.549h-1.335l-0.118,0.334
			c-0.54,1.532-0.636,3.801-0.385,4.878l0.036,0.153l0.117,0.105c1.542,1.383,4.587,1.873,6.727,1.873
			c2.005,0,3.919-0.771,5.251-2.114c1.18-1.19,1.822-2.737,1.808-4.354C311.019,78.636,310.326,77.006,309.162,76.027z"/>
	</g>
</g>
</svg>
