<?xml version="1.0" encoding="utf-8"?>
<!-- Generator: Adobe Illustrator 16.0.0, SVG Export Plug-In . SVG Version: 6.00 Build 0)  -->
<!DOCTYPE svg PUBLIC "-//W3C//DTD SVG 1.1//EN" "http://www.w3.org/Graphics/SVG/1.1/DTD/svg11.dtd">
<svg version="1.1" id="Layer_1" xmlns="http://www.w3.org/2000/svg" xmlns:xlink="http://www.w3.org/1999/xlink" x="0px" y="0px"
	 width="325px" height="75px" viewBox="345 12.5 325 75" enable-background="new 345 12.5 325 75" xml:space="preserve">
<g>
	<path fill="#B69D74" d="M397.385,44.167h-5.899l2.978-2.326v-1.714h1.988v-0.505h-1.988v-0.113h-0.284v0.113h-3.818v-0.705h-0.425
		v-1.085c0.059,0.082,0.138,0.157,0.259,0.182c0.245,0.049,0.426-0.168,0.505-0.366c0.183-0.452,0.084-1.02-0.26-1.52
		c-0.144-0.207-0.316-0.38-0.504-0.513v-1.588h-0.708v1.311c-0.048-0.006-0.098-0.01-0.146-0.009l-0.462,0.009l0.552,0.359
		c-0.457,0.455-1.017,0.971-1.685,1.136c-0.266,0.065-0.552,0.077-0.804,0.086c-3.404,0.131-6.85,0.037-10.241-0.279l-0.025,0.281
		c3.402,0.317,6.86,0.412,10.277,0.281c0.266-0.011,0.567-0.022,0.859-0.093c0.671-0.165,1.217-0.63,1.674-1.07v1.515
		c-0.009,0.009-0.017,0.019-0.027,0.027l-0.068,0.072c-0.318,0.318-0.811,0.322-1.331,0.325c-0.098,0-0.193,0.004-0.286,0.007
		c0.442-0.133,0.885-0.263,1.329-0.396c-1.178-0.064-2.363,0.032-3.513,0.291c-0.85,0.189-1.688,0.469-2.558,0.505
		c-0.871,0.034-1.811-0.224-2.344-0.91c0.083,0.3,0.166,0.598,0.25,0.899c-1.567,0.057-3.086-0.243-4.631-0.277
		c0.05-0.419,0.157-0.823,0.323-1.198l0.055-0.122l-0.12-0.061c-1.273-0.649-2.637-0.873-3.795-0.65
		c-0.277,0-0.552,0.044-0.822,0.196c-0.056,0.03-0.104,0.069-0.154,0.106c-0.229,0.068-0.467,0.101-0.704,0.09
		c-0.081-0.701-0.041-1.427,0.103-2.12c0.078,0.008,0.156-0.004,0.221-0.046c0.188-0.124,0.251-0.361,0.313-0.578
		c0.061-0.217,0.151-0.454,0.356-0.543c-0.125,0.054-0.313-0.396-0.557-0.755c0.089,0.09,0.17,0.185,0.245,0.285
		c-0.104-0.535-0.54-0.941-0.996-1.239c-0.457-0.296-0.962-0.529-1.349-0.914c-0.231-0.229-0.368-0.691-0.07-0.821
		c0.179-0.079,0.377,0.042,0.532,0.16c1.085,0.814,2.131,1.84,2.418,3.167c0.205-0.796,0.855-1.458,1.646-1.68
		c-0.409-0.15-0.862-0.035-1.298-0.025c-0.438,0.009-0.956-0.168-1.054-0.593c-0.056-0.248,0.051-0.501,0.162-0.73
		c0.242-0.5,0.516-0.984,0.82-1.451c-0.529,0.355-1.005,0.789-1.407,1.282c-0.284-0.02-0.573-0.29-0.849-0.358
		c-0.523-0.13-0.594-0.136-0.884-0.591c-0.288-0.455-0.354-1.027-0.55-1.604c-0.121,0.511-0.246,1.022-0.371,1.533
		c-0.03,0.126-0.063,0.258-0.141,0.363c-0.276,0.381-0.993,0.287-1.165,0.726c-0.467-0.397-0.921-0.808-1.363-1.231
		c0.131,0.656,0.436,1.276,0.876,1.779c-0.254,0.338-0.377,0.771-0.339,1.193c-0.44,0.061-0.688,0.348-1.127,0.408
		c0.345,0.1,0.689,0.2,1.033,0.299c0.308,0.627,0.744,1.321,1.303,1.764c0.095,0.206,0.287,0.398,0.518,0.553
		c-0.024,0.42-0.052,0.838-0.075,1.259c-0.011,0.198-0.023,0.405,0.048,0.592c0.216,0.581,1.146,0.847,1.04,1.458
		c0.369-0.366,0.351-0.966,0.251-1.478c-0.1-0.499-0.251-1.027-0.096-1.512c0.628-0.092,1.158-0.525,1.646-0.942
		c-0.006,0.033-0.002,0.066,0.009,0.093c-0.159,0.704-0.203,1.438-0.141,2.157c-0.079-0.021-0.165-0.018-0.238,0.021l0.08,0.288
		c-0.494-0.086-1.011,0.366-0.991,0.869c0.392-0.3,0.781-0.601,1.171-0.9c0,0.004,0,0.011,0.004,0.014l0.014,0.113l0.112,0.01
		c0.159,0.014,0.314,0.007,0.473-0.01c-0.326,0.39-0.592,0.873-1.013,1.188c-0.789,0.591-1.771,0.881-2.556,1.478
		c-0.766,0.578-1.31,1.445-1.502,2.384c0.604-1.084,1.55-1.975,2.668-2.514c0.821-0.396,1.745-0.613,2.461-1.18
		c0.483-0.381,0.84-0.895,1.189-1.4c-0.285,0.668-0.568,1.335-0.854,2.003c0.583-0.173,0.9-0.781,1.183-1.32
		c0.224-0.432,0.525-0.886,0.945-1.084c0.77,0.04,1.585,0.249,2.371,0.632c-0.396,0.982-0.425,2.137-0.085,3.221
		c-0.062,0.202-0.066,0.419-0.132,0.621c-0.102,0.313-0.362,0.568-0.678,0.664c0.002-0.481-0.337-0.946-0.798-1.09
		c-0.132-0.04-0.28-0.063-0.373-0.164c-0.052-0.058-0.077-0.131-0.106-0.203c-0.145-0.398-0.29-0.796-0.438-1.194
		c-0.1,0.471-0.276,0.923-0.517,1.34c-0.057,0.008-0.108,0.019-0.158,0.036c-0.092-0.076-0.185-0.152-0.276-0.228
		c-0.271,0.176-0.237,0.569-0.267,0.894c-0.026,0.321-0.336,0.701-0.604,0.521c-0.193-0.131-0.146-0.431-0.253-0.636
		c-0.056-0.106-0.155-0.184-0.247-0.259c-0.666-0.524-1.264-0.153-0.531,0.365c0.27,0.19,0.631,0.326,0.723,0.643
		c0.051,0.173,0.006,0.356-0.021,0.532c-0.076,0.492,0,1.007,0.215,1.454c0.053,0.112,0.125,0.228,0.241,0.264
		c0.166,0.053,0.337-0.088,0.411-0.246c0.075-0.156,0.093-0.336,0.17-0.493c0.007-0.016,0.018-0.029,0.026-0.043
		c0.004,0.214,0.014,0.432,0.052,0.649c0.044,0.252,0.123,0.496,0.203,0.729l0.021,0.064c0.451,1.356,0.789,2.761,1.007,4.174
		c0.44,2.845,0.434,5.485-0.021,8.071c-0.301,1.725-0.211,3.471-0.073,5.176c-0.052-0.246-0.115-0.491-0.199-0.732l-0.268,0.225
		c0.676,2.944-0.342,6.099,0.439,9.016c0.06-1.774,0.121-3.55,0.183-5.324c0.01-0.32,0.021-0.641,0.024-0.963
		c0.026,0.38,0.05,0.76,0.063,1.139c0.024,0.668,0.036,1.336,0.051,2.002c0.028,1.436,0.06,2.916,0.197,4.375
		c-0.297-0.15-0.632-0.222-0.965-0.207c-0.285,0.013-0.563,0.084-0.832,0.154c-0.399,0.104-0.776,0.204-1.139,0.103
		c-0.053-0.014-0.105-0.031-0.154-0.051c-0.122-0.044-0.247-0.087-0.391-0.092c-0.197-0.007-0.375,0.071-0.521,0.131l-1.578,0.662
		c-0.306,0.13-0.527,0.006-0.832-0.165c-0.145-0.08-0.307-0.171-0.491-0.237c-0.904-0.325-1.974-0.19-2.776,0.335
		c-0.05-0.213,0.026-0.473,0.105-0.708l0.389-1.146c0.104,0.447,0.309,0.846,0.68,1.143c0.34-0.58,0.975-0.905,1.494-1.332
		c0.52-0.428,0.963-1.119,0.71-1.741c0.403,0.514,0.808,1.025,1.212,1.539c-0.431-1.086-0.646-2.257-0.628-3.425
		c0.038,1.064,0.819,1.938,1.558,2.708c0.279,0.295,0.563,0.59,0.844,0.884c-0.452-0.651-0.67-1.463-0.603-2.254
		c0.063-0.747,0.357-1.552-0.009-2.206c-0.224-0.4-0.647-0.637-1.007-0.924c-0.36-0.285-0.604-0.709-0.7-1.158
		c-0.939-4.381,0.537-9.052-0.658-13.368c1.16,1.814,1.906,3.892,2.167,6.031c0.063-3.611-2.395-7.047-1.77-10.603
		c-0.265,0.915-0.519,1.933-0.783,2.849c0.17-1.042,0.099-2.12-0.201-3.132c-0.302,0.98-0.649,1.947-1.044,2.895
		c0.015-0.776,0.028-1.556,0.043-2.331c-0.354,0.476-0.706,0.954-1.059,1.432c0.032-0.61,0.166-1.216,0.401-1.781
		c0.477-0.588,1.025-1.118,1.631-1.57c0.001,0.277,0.066,0.554,0.188,0.806c0.173-0.252,0.335-0.507,0.486-0.77
		c0.295,0.43,0.701,0.786,1.17,1.018c-0.254-0.38-0.329-0.871-0.204-1.308c0.072-0.252,0.207-0.501,0.165-0.757
		c-0.024-0.139-0.099-0.263-0.149-0.393c-0.229-0.553-0.071-1.179,0.087-1.756c-0.484,0.399-0.675,1.045-0.837,1.653
		c-0.12-0.465-0.718-0.73-1.143-0.507c-0.233,0.121-0.395,0.352-0.628,0.472c-0.209,0.105-0.511,0.012-0.696-0.106
		c-0.146-0.257-0.229-0.498-0.145-0.753l0.115-0.337l-0.315,0.165c-0.782,0.415-1.322,1.22-1.411,2.1
		c-0.018,0.182-0.284,0.622-0.381,0.647l-0.021,0.14c0.059-1.397,1.354-2.45,1.652-3.817c0.111-0.521,0.074-1.06,0.135-1.588
		c0.06-0.529,0.245-1.084,0.68-1.389c0.067-0.048,0.14-0.09,0.222-0.095c0.189-0.016,0.334,0.154,0.456,0.298
		c0.456,0.541,1.057,0.96,1.721,1.202c-0.585-0.379-1.08-0.896-1.436-1.495c-0.093-0.155-0.177-0.324-0.169-0.502
		c0.007-0.151,0.104-0.306,0.242-0.353l-0.107,0.021c-0.327,0.18-0.654,0.356-0.98,0.535c-0.182,0.098-0.366,0.198-0.493,0.361
		c-0.123,0.157-0.178,0.357-0.232,0.551c-0.169,0.582-0.37,1.153-0.608,1.713c-0.052,0.127-0.109,0.256-0.205,0.355
		c-0.216,0.23-0.593,0.271-0.769,0.53c-0.24,0.357,0.025,0.936-0.294,1.225c-0.196-0.546-0.395-1.092-0.593-1.639
		c-0.046-0.125-0.121-0.271-0.235-0.321c0-0.157,0.021-0.314,0.065-0.465c0.11,0.35,0.37,0.67,0.728,0.743
		c0.102-0.501-0.052-1.021,0-1.529c0.052-0.507,0.475-1.063,0.969-0.936c-0.041,0.3-0.084,0.6-0.128,0.9
		c0.124-0.904,0.747-1.729,1.586-2.093c-0.956,0.296-1.96,0.441-2.962,0.435c-0.007-0.003-0.011-0.009-0.019-0.01
		c-0.018-0.008-0.036-0.012-0.055-0.013c0.004-0.029,0.008-0.058,0.009-0.086l-0.033,0.086c-0.057,0-0.108,0.02-0.142,0.06
		l-0.012,0.115c-1.003,0.332-1.977,0.481-2.885,0.449c-0.296-0.011-0.6-0.042-0.893-0.072c-0.362-0.037-0.737-0.078-1.112-0.078
		h-0.032c-0.693,0-1.384,0.123-2.051,0.244c-0.235,0.043-0.471,0.086-0.703,0.122c-1.172,0.185-2.368,0.238-3.554,0.162
		c-0.242-0.017-0.495-0.042-0.716-0.133l-0.04-0.724l1.448-0.132c0.161,0.169,0.382,0.265,0.614,0.265
		c0.473,0,0.858-0.385,0.858-0.855c0-0.474-0.386-0.857-0.858-0.857c-0.327,0-0.627,0.189-0.768,0.484l-1.396,0.015l1.225-17.099
		v-4.175l-1.131,4.161l-1.613,17.346l-1.782,0.276c-0.161-0.187-0.396-0.293-0.645-0.293c-0.471,0-0.854,0.385-0.854,0.856
		c0,0.473,0.384,0.857,0.854,0.857c0.231,0,0.45-0.094,0.612-0.26l0.86-0.033l-0.031,0.057h0.016
		c0.008-0.019,0.016-0.04,0.022-0.057l0.071-0.005c-0.012,0.018-0.017,0.038-0.015,0.062h-0.079
		c-0.213,0.542,0.065,1.179,0.348,1.71c0.043,0.08,0.088,0.165,0.166,0.217c0.117,0.078,0.271,0.056,0.409,0.02v0.832
		c-0.163,0.16-0.254,0.378-0.254,0.604c0,0.473,0.384,0.856,0.856,0.856c0.472,0,0.856-0.384,0.856-0.856
		c0-0.227-0.092-0.444-0.254-0.604v-0.753c0.721-0.099,1.47,0.023,2.194,0.146c0.129,0.021,0.258,0.041,0.386,0.063l0.551,0.087
		c1.605,0.262,3.264,0.531,4.867,0.251c1.449-0.253,2.962-0.18,4.378,0.214c0.12,1.327,0.486,2.632,1.076,3.827l-0.021,0.14
		c0.079,0.013,0.159-0.013,0.241-0.078c0.226-0.175,0.448-0.628,0.467-0.821c0.067-0.679,0.454-1.325,1.011-1.723
		c0.01,0.354,0.216,0.678,0.419,0.993c0.172,0.271,0.344,0.549,0.39,0.834c-0.021,0.132-0.064,0.264-0.109,0.391
		c-0.096,0.277-0.193,0.555-0.289,0.831c-0.018,0.033-0.037,0.065-0.056,0.1c-0.452,0.845-0.673,1.804-0.651,2.76
		c-0.063,0.085-0.127,0.17-0.188,0.257c-0.239,0.325-0.483,0.658-0.621,1.039c-0.189,0.524-0.16,1.101-0.12,1.657
		c0.063,0.836,0.551,1.563,0.584,2.4c0.192,4.943,1.438,9.941,0.496,14.796c-0.112,0.578-0.211,1.212-0.188,1.809l-0.293,0.864
		c-2.941,1.65-4.935,4.791-4.935,8.404h-1.721v7.466h22.663v-7.466h-1.677c0-3.456-1.82-6.48-4.554-8.182
		c-0.086-1.203-0.111-2.416-0.136-3.599c-0.014-0.669-0.025-1.339-0.053-2.007c-0.03-0.874-0.106-1.759-0.178-2.611
		c-0.164-1.929-0.335-3.92,0.007-5.864c0.459-2.619,0.466-5.288,0.021-8.164c-0.221-1.427-0.563-2.849-1.02-4.22l-0.021-0.064
		c-0.074-0.224-0.152-0.457-0.192-0.689c-0.046-0.26-0.046-0.534-0.049-0.802v-0.126c0.195-0.176,0.409-0.339,0.486-0.584
		c0.084-0.267-0.019-0.55-0.073-0.824c-0.054-0.272-0.033-0.608,0.203-0.757c0.069,0.182,0.146,0.375,0.299,0.493
		c0.155,0.118,0.414,0.119,0.515-0.05c0.028,0.018,0.055,0.037,0.082,0.057c0.02,0.054,0.041,0.111,0.058,0.167l0.62,2.001
		c0.05,0.157,0.116,0.373,0.29,0.509c0.286,0.227,0.719,0.103,0.941-0.154c0.213-0.241,0.277-0.563,0.32-0.846
		c0.021-0.13,0.043-0.259,0.065-0.39c0.078-0.471,0.155-0.954,0.178-1.445c0.005-0.009,0.01-0.019,0.014-0.028
		c0.087-0.183,0.175-0.371,0.169-0.571c-0.001-0.092-0.031-0.185-0.076-0.263c0.348-0.439,1.018-0.687,2.04-0.747
		c0.864-0.051,1.743-0.051,2.61-0.001c0.153,0.007,0.306,0.017,0.459,0.028c0.758,0.05,1.542,0.102,2.306-0.037
		c0.489-0.089,0.963-0.252,1.424-0.413c0.622-0.216,1.211-0.421,1.837-0.455c0.128-0.008,0.263-0.008,0.396-0.008
		c0.51-0.005,1.031-0.012,1.425-0.323v0.979h-0.426v0.705h-3.825v-0.11h-0.283v0.113h-1.558v0.505h1.558v1.714l2.979,2.326h-5.901
		c-0.213,0.171-0.335,0.363-0.335,0.565c0,0.729,1.521,1.316,3.401,1.316c1.876,0,3.398-0.589,3.398-1.316
		c0-0.202-0.246-0.678-0.246-0.678l-3.013-2.354v-1.574h3.826v0.653h0.425v1.057h0.708V40.78h0.425v-0.653h3.82v1.574l-3.012,2.354
		c0,0-0.247,0.476-0.247,0.678c0,0.729,1.523,1.316,3.401,1.316s3.398-0.589,3.398-1.316
		C397.721,44.53,397.598,44.338,397.385,44.167 M368.39,34.948c0.078,0.024,0.155,0.044,0.23,0.058
		C368.542,35.003,368.464,34.982,368.39,34.948 M370.6,32.038c-0.403,0.217-0.199,1.362-0.432,1.766
		c-0.172,0.295-0.511,0.52-0.847,0.458c-0.337-0.062-0.582-0.486-0.395-0.772c0.146,0.06,0.336,0.048,0.428-0.078
		c0.093-0.126-0.009-0.356-0.164-0.325c-0.098,0.019-0.171,0.128-0.272,0.12c-0.097-0.007-0.148-0.118-0.167-0.213
		c-0.106-0.526,0.092-1.175-0.212-1.574c0.114-0.081,0.22-0.13,0.308-0.125c0.701,0.039,1.382,0.295,1.946,0.709
		C370.73,31.993,370.667,32.003,370.6,32.038 M362.544,37.052l0.02,0.016c-0.003,0.032-0.008,0.063-0.011,0.093
		c-0.003,0-0.009,0.001-0.012-0.001c-0.029-0.013-0.053-0.039-0.061-0.071L362.544,37.052z M354.775,38.001
		c0.236-0.037,0.473-0.08,0.71-0.121c0.666-0.121,1.357-0.245,2.031-0.24c0.36,0.002,0.729,0.04,1.085,0.076
		c0.299,0.03,0.606,0.063,0.914,0.073c0.957,0.034,1.972-0.123,3.022-0.476c-0.033,0.291-0.066,0.58-0.1,0.87
		c-0.035,0.323-0.066,0.652-0.019,0.972c-0.436-0.065-0.883,0.021-1.319,0.094c-0.479,0.081-0.987,0.136-1.437-0.048
		c-0.45-0.185-0.805-0.688-0.659-1.149c-0.367,0.105-0.115,0.688-0.263,1.042c-0.109,0.26-0.429,0.353-0.71,0.366
		c-1.133,0.057-2.19-0.621-3.322-0.674c-0.657-0.031-1.304,0.149-1.96,0.149c-0.78,0-1.535-0.27-2.16-0.73
		c-0.075-0.055-0.143-0.118-0.213-0.183c0.252,0.101,0.523,0.13,0.785,0.146C352.366,38.246,353.582,38.189,354.775,38.001
		 M357.634,39.974c-0.169,0.021-0.336,0.039-0.506,0.051C357.296,40.007,357.465,39.99,357.634,39.974 M351.912,36.213l0.033-0.094
		c0.081-0.23,0.297-0.388,0.539-0.388c0.316,0,0.574,0.258,0.574,0.574s-0.258,0.573-0.574,0.573c-0.173,0-0.334-0.079-0.446-0.219
		l-0.048-0.06l-0.369,0.034l-1.085-0.407L351.912,36.213z M346.854,37.34l-0.04,0.048c-0.111,0.133-0.269,0.207-0.438,0.207
		c-0.315,0-0.572-0.257-0.572-0.572c0-0.317,0.257-0.574,0.572-0.574c0.187,0,0.36,0.092,0.469,0.243l0.05,0.073l2.17-0.336
		l1.63-17.541l0.569-2.097v0.479l-1.827,19.854h-0.683v0.144L346.854,37.34z M348.451,38.064c-0.05-0.154-0.022-0.333-0.104-0.476
		c-0.005-0.008-0.015-0.015-0.022-0.022l0.429-0.018v0.872C348.621,38.326,348.503,38.217,348.451,38.064 M348.784,41.024
		c0-0.165,0.073-0.325,0.204-0.436l0.051-0.042v-1.051c0.136-0.059,0.256-0.145,0.302-0.281c0.075-0.229-0.105-0.455-0.302-0.6
		v-0.888c0.21,0.254,0.399,0.553,0.531,0.866l-0.14,1.785c0.615,0.806-0.324,1.116-0.324,1.116c0.145,0.055,0.261,0.082,0.36,0.093
		c-0.035,0.007-0.071,0.012-0.109,0.012C349.04,41.599,348.784,41.342,348.784,41.024 M376.228,39.767
		c-0.019,0.012-0.038,0.026-0.056,0.042c-0.066-0.258-0.111-0.519-0.132-0.777c0.033,0.192,0.082,0.386,0.128,0.567
		C376.182,39.653,376.201,39.716,376.228,39.767 M375.293,43.367c-0.084-0.065-0.132-0.178-0.174-0.31
		c0.153,0.173,0.359,0.293,0.575,0.31C375.562,43.435,375.404,43.453,375.293,43.367 M376.165,42.157
		c-0.021,0.129-0.043,0.261-0.064,0.39c-0.035,0.232-0.09,0.493-0.236,0.679c-0.153-0.455-0.241-0.928-0.256-1.404
		c0.157,0.172,0.236,0.414,0.212,0.645c0.148-0.315,0.297-0.631,0.444-0.945C376.236,41.729,376.202,41.94,376.165,42.157
		 M390.205,36.289c0.286,0.414,0.375,0.894,0.232,1.252c-0.044,0.104-0.127,0.203-0.19,0.193c-0.046-0.009-0.086-0.068-0.141-0.156
		c-0.045-0.07-0.097-0.15-0.171-0.211V35.98C390.033,36.067,390.126,36.172,390.205,36.289"/>
	<g>
		<g>
			<path fill="#1f2839" d="M437.967,33.251c3.181-1.424,6.04-4.47,6.04-8.315c0-9.337-9.226-10.731-14.726-10.731L414.826,14.2
				l0.029,1.682h1.298c2.091,0,3.535,1.281,3.596,3.171v32.278c-0.056,1.797-1.635,3.205-3.596,3.205h-1.301l-0.026,1.686h17.431
				c7.601,0,15.722-3.147,15.722-11.979C447.979,39.062,443.87,34.666,437.967,33.251z M425.043,17.25h4.148
				c6.062,0,9.009,2.512,9.009,7.679c0,5.413-3.656,7.934-11.506,7.934h-0.513l0.041,1.685h0.488
				c10.483,0,15.366,3.081,15.366,9.695c0,5.673-3.596,8.927-9.866,8.927l-7.168,0.001V17.25z"/>
			<path fill="#1f2839" d="M497.712,50.845l-17.017-37.602h-1.432l-0.036,0.46c-0.053,0.657-0.52,2.329-2.451,6.565
				c-0.057,0.123-0.102,0.221-0.133,0.304l-0.003-0.001L462.493,50.86c-1.158,2.301-2.994,3.674-4.913,3.674h-1.042v1.683h14.025
				V54.54h-1.042c-0.697,0-1.377-0.357-1.772-0.932c-0.478-0.692-0.516-1.621-0.117-2.669l3.636-8.601h16.628l3.597,8.76
				c0.344,1.006,0.278,1.884-0.19,2.539c-0.397,0.557-1.069,0.902-1.752,0.902h-1.043v1.677h15.043v-1.683h-1.017
				C500.633,54.534,498.873,53.184,497.712,50.845z M486.644,39.291h-14.085l7.144-16.91L486.644,39.291z"/>
			<path fill="#1f2839" d="M527.873,54.534c-2.215,0-4.073-1.422-4.141-3.15l-0.001-32.389c0.107-1.747,1.924-3.116,4.137-3.116
				h1.422v-1.683h-16.497l0.031,1.683h1.402c2.244,0,4.106,1.444,4.151,3.206v32.233c-0.045,1.772-1.904,3.214-4.146,3.214h-1.404
				l-0.031,1.685h16.514l-0.036-1.683H527.873z"/>
			<path fill="#1f2839" d="M573.46,45.709c-2.033,4.634-4.385,7.333-10.381,7.416h-10.198V19.089
				c0.041-1.769,1.648-3.208,3.582-3.208h1.299l0.023-1.685H542.61l0.022,1.685h1.3c1.938,0,3.547,1.442,3.585,3.205v32.298
				c-0.072,1.796-1.554,3.15-3.445,3.15h-1.431l-0.029,1.684h28.624l4.151-10.808h-1.795L573.46,45.709z"/>
			<path fill="#1f2839" d="M615.299,45.709c-2.034,4.635-4.388,7.335-10.39,7.419h-10.19V36.734l11.31-0.001
				c1.933,0.113,2.142,1.715,2.142,2.398v1.362l1.743,0.019V29.896l-1.743,0.023v1.361c0,0.708-0.223,2.361-2.271,2.403h-11.178
				V17.291h13.665c1.729,0.033,2.938,1.272,2.938,3.014v1.546l1.741,0.019v-8.972l-0.682,0.266c-1.159,0.452-4.829,1.02-7.454,1.037
				h-20.481l0.033,1.684h1.429c1.966,0,3.448,1.324,3.448,3.08v32.423c-0.072,1.796-1.555,3.149-3.446,3.149h-1.432l-0.026,1.686
				h28.625l4.147-10.812h-1.795L615.299,45.709z"/>
			<path fill="#1f2839" d="M654.689,14.198v1.684h1.282c0.748,0,1.386,0.313,1.749,0.857c0.339,0.509,0.385,1.16,0.157,1.72
				l-10.168,16.902l-9.479-16.887c-0.225-0.62-0.146-1.27,0.216-1.784c0.365-0.521,0.951-0.808,1.649-0.808h1.282v-1.684h-16.852
				v1.684h1.343c2.351,0,4.479,1.172,5.833,3.207l12.584,19.727v12.502c-0.038,1.773-1.599,3.217-3.479,3.217h-1.277l-0.022,1.684
				H654.5l-0.02-1.684h-1.279c-1.883,0-3.442-1.442-3.476-3.206V38.914l13.013-19.758c1.169-1.583,3.326-3.274,5.873-3.274h1.368
				v-1.684H654.689z"/>
		</g>
		<g>
			<path d="M437.333,76.488c-0.345,5.231-3.847,8.232-9.608,8.232l-0.148-0.001c-5.592-0.049-9.064-3.875-9.064-9.984
				c0-6.184,3.461-10.024,9.032-10.024c4.782,0,7.71,2.015,8.701,5.988l0.095,0.379h1.301l-0.946-6.041l-0.198-0.12
				c-2.346-1.43-5.771-2.317-8.937-2.317c-7.85,0-12.726,4.649-12.726,12.134c0,7.448,4.875,12.098,12.724,12.135h0.002
				c4.544,0,8.615-1.917,10.623-5.004l0.069-0.106l0.446-5.752l-1.335,0.024L437.333,76.488z"/>
			<path d="M472.227,64.493h0.918l0.021-1.37h-8.564l0.019,1.37h0.918c0.898,0,1.644,0.682,1.659,1.509v7.827h-12.674l-0.001-7.865
				c0.041-0.825,0.77-1.473,1.658-1.473h0.921l0.014-1.371h-8.559l0.014,1.371h0.922c0.898,0,1.643,0.681,1.659,1.508v17.466
				c-0.018,0.836-0.762,1.517-1.658,1.517h-0.918l-0.021,1.37h8.563l-0.019-1.37h-0.917c-0.901,0-1.63-0.658-1.658-1.481v-7.563
				h12.674v7.549c-0.028,0.839-0.757,1.496-1.659,1.496h-0.918l-0.019,1.372h8.563l-0.019-1.369h-0.919
				c-0.898,0-1.628-0.655-1.659-1.473l-0.001-17.549C470.613,65.139,471.341,64.493,472.227,64.493z"/>
			<path d="M504.138,83.115l-9.282-20.514h-1.137l-0.035,0.461c-0.026,0.336-0.273,1.21-1.301,3.471
				c-0.028,0.063-0.055,0.12-0.076,0.176l-0.002-0.001l-7.665,16.408c-0.589,1.168-1.509,1.865-2.46,1.865h-0.793v1.37h8.061v-1.367
				h-0.795c-0.305,0-0.601-0.155-0.772-0.405c-0.214-0.31-0.226-0.739-0.04-1.226l1.911-4.524h8.706l1.887,4.595
				c0.161,0.471,0.136,0.874-0.073,1.166c-0.174,0.243-0.467,0.395-0.765,0.395h-0.795v1.367h8.611v-1.37h-0.778
				C505.604,84.981,504.724,84.295,504.138,83.115z M497.59,76.72h-6.946l3.523-8.338L497.59,76.72z"/>
			<path d="M543.721,83.378l-3.033-20.764h-1.093l-9.155,18.207l-9.472-18.221h-1.104l-2.925,20.712
				c-0.157,1.153-1.14,1.669-2.044,1.669h-1.053v1.37h7.87v-1.351h-1.04c-0.243-0.001-0.491-0.116-0.663-0.31
				c-0.087-0.097-0.228-0.3-0.197-0.567l1.479-13.276l8.305,16.023h1.092l0.069-0.418c0.241-1.444,1.267-3.629,1.271-3.639
				l6.241-12.318l1.743,13.637c0.033,0.257-0.078,0.445-0.178,0.559c-0.168,0.191-0.43,0.311-0.683,0.311h-1.043v1.351h8.697v-1.371
				h-1.053C544.871,84.981,543.899,84.483,543.721,83.378z"/>
			<path d="M568.921,73.613c1.567-0.888,2.871-2.481,2.871-4.444c0-3.84-2.991-6.042-8.208-6.042l-8.065-0.004l0.021,1.368h0.927
				c1,0,1.69,0.605,1.719,1.49v17.487c-0.025,0.85-0.78,1.516-1.719,1.516h-0.924l-0.029,1.369h9.681c4.23,0,8.75-1.766,8.75-6.722
				C573.945,76.89,571.91,74.541,568.921,73.613z M561.517,65.232h2.02c3.176,0,4.654,1.25,4.654,3.935
				c0,2.777-1.909,4.071-6.009,4.071h-0.514l0.036,1.369h0.487c5.525,0,8.099,1.597,8.099,5.024c0,4.16-3.58,4.609-5.119,4.609
				h-3.654V65.232z"/>
			<path d="M600.79,80.333c-1.093,2.487-2.282,3.843-5.423,3.882h-5.293v-8.424l5.888-0.001c0.778,0.047,0.942,0.607,0.942,1.07
				v0.966l1.402,0.014v-6.21l-1.402,0.006v0.97c0,0.48-0.175,1.057-1,1.073h-5.83v-8.424h7.174c0.805,0.014,1.367,0.591,1.367,1.402
				v1.064l1.401,0.014v-5.428l-0.683,0.267c-0.54,0.212-2.44,0.535-3.956,0.549h-11.334l0.025,1.37h1.002
				c0.936,0,1.641,0.619,1.641,1.439v17.564c-0.034,0.848-0.739,1.487-1.64,1.487h-1l-0.029,1.37h15.907l2.426-6.32h-1.454
				L600.79,80.333z"/>
			<path d="M629.349,82.335c-1.386-1.555-2.948-3.64-3.178-3.955l-0.028-0.04c-0.448-0.633-1.24-1.627-2.024-2.338
				c2.934-0.798,5.022-3.365,5.022-6.379c0-4.008-3.077-6.498-8.031-6.498l-9.797-0.002l0.029,1.368h0.988
				c0.901,0,1.576,0.607,1.604,1.429l0.001,17.584c-0.039,0.844-0.729,1.48-1.604,1.48h-0.99l-0.029,1.37h8.593l-0.014-1.37h-0.999
				c-0.896,0-1.585-0.653-1.604-1.509v-18.2l0.191-0.003c0.782-0.013,2.099-0.037,3.544,0.038c2.762,0.139,4.386,1.622,4.454,4.067
				c0.019,0.73-0.069,1.456-0.234,1.94c-0.934,2.741-2.862,2.791-4.986,2.846c-1.182,0.032-2.08,0.016-2.102,0.015l-0.51-0.01v1.354
				h0.5c1.021,0,2.123,0.754,3.365,2.304c0.116,0.146,0.662,0.922,1.297,1.824c1.178,1.671,2.097,2.973,2.34,3.263
				c1.138,1.37,2.857,3.44,7.263,3.44h1.667v-1.368l-0.496-0.004C631.782,84.967,630.893,84.064,629.349,82.335z"/>
			<path d="M654.16,76.027l-7.49-5.765c-1.129-0.909-1.265-1.88-1.269-2.532c-0.005-0.67,0.27-1.305,0.795-1.834
				c0.753-0.759,1.904-1.194,3.158-1.194c2.509,0,3.78,0.934,3.78,2.773v0.5h1.434l-0.069-5.029h-1.677
				c-1.026-0.23-2.245-0.343-3.723-0.343c-1.934,0-3.762,0.729-5.014,2c-1.062,1.077-1.634,2.468-1.612,3.916
				c0.026,1.796,0.698,3.31,1.965,4.393l7.389,5.702c0.815,0.71,1.18,1.497,1.18,2.553c0,2.136-1.707,3.513-4.453,3.592
				l-0.202,0.003c-1.486,0-2.742-0.481-3.534-1.355c-0.749-0.825-1.075-1.978-0.941-3.332l0.054-0.549h-1.332l-0.118,0.334
				c-0.54,1.528-0.637,3.798-0.386,4.878l0.036,0.153l0.117,0.105c1.542,1.383,4.587,1.873,6.727,1.873
				c2.006,0,3.921-0.771,5.253-2.115c1.18-1.19,1.821-2.737,1.807-4.354C656.019,78.636,655.325,77.006,654.16,76.027z"/>
		</g>
	</g>
</g>
</svg>
